G04 #@! TF.FileFunction,Copper,L1,Top,Signal*
%FSLAX46Y46*%
G04 Gerber Fmt 4.6, Leading zero omitted, Abs format (unit mm)*
G04 Created by KiCad (PCBNEW 4.0.0-rc2-stable) date 16/03/2018 16:43:17*
%MOMM*%
G01*
G04 APERTURE LIST*
%ADD10C,0.100000*%
%ADD11R,0.500000X0.600000*%
%ADD12R,0.600000X0.500000*%
%ADD13R,1.600000X3.500000*%
%ADD14R,0.800000X0.800000*%
%ADD15R,2.500000X3.500000*%
%ADD16O,3.500000X1.750000*%
%ADD17R,1.350000X1.350000*%
%ADD18O,1.350000X1.350000*%
%ADD19R,0.450000X1.300000*%
%ADD20O,1.450000X2.000000*%
%ADD21O,1.150000X1.800000*%
%ADD22R,0.600000X0.400000*%
%ADD23R,0.400000X0.600000*%
%ADD24C,2.000000*%
%ADD25R,1.450000X0.450000*%
%ADD26R,0.600000X1.550000*%
%ADD27R,0.650000X1.060000*%
%ADD28C,0.600000*%
%ADD29C,0.250000*%
%ADD30C,0.254000*%
G04 APERTURE END LIST*
D10*
D11*
X172250000Y-60300000D03*
X172250000Y-59200000D03*
D12*
X180950000Y-55140616D03*
X182050000Y-55140616D03*
D11*
X177000000Y-57800000D03*
X177000000Y-56700000D03*
X176000000Y-66450000D03*
X176000000Y-67550000D03*
D13*
X180750000Y-67800000D03*
X180750000Y-73200000D03*
D14*
X111950000Y-65000000D03*
X113550000Y-65000000D03*
X112000000Y-76500000D03*
X113600000Y-76500000D03*
X112000000Y-88000000D03*
X113600000Y-88000000D03*
X112000000Y-99500000D03*
X113600000Y-99500000D03*
X123450000Y-65000000D03*
X125050000Y-65000000D03*
X123500000Y-76500000D03*
X125100000Y-76500000D03*
X123500000Y-88000000D03*
X125100000Y-88000000D03*
X123500000Y-99500000D03*
X125100000Y-99500000D03*
X134950000Y-65000000D03*
X136550000Y-65000000D03*
X135000000Y-76500000D03*
X136600000Y-76500000D03*
X135000000Y-88000000D03*
X136600000Y-88000000D03*
X135000000Y-99500000D03*
X136600000Y-99500000D03*
X146450000Y-65000000D03*
X148050000Y-65000000D03*
X146500000Y-76500000D03*
X148100000Y-76500000D03*
X146500000Y-88000000D03*
X148100000Y-88000000D03*
X146500000Y-99500000D03*
X148100000Y-99500000D03*
D15*
X180000000Y-82000000D03*
D16*
X174994000Y-87000000D03*
X174994000Y-77000000D03*
X174994000Y-84500000D03*
X174994000Y-79500000D03*
D17*
X175750000Y-73000000D03*
D18*
X173750000Y-73000000D03*
D19*
X172425000Y-55850000D03*
X171775000Y-55850000D03*
X171125000Y-55850000D03*
X170475000Y-55850000D03*
X169825000Y-55850000D03*
D20*
X174850000Y-55800000D03*
X167400000Y-55800000D03*
D21*
X175000000Y-52000000D03*
X167250000Y-52000000D03*
D22*
X166500000Y-66050000D03*
X166500000Y-66950000D03*
X166500000Y-64050000D03*
X166500000Y-64950000D03*
X170250000Y-73450000D03*
X170250000Y-72550000D03*
X176000000Y-64952800D03*
X176000000Y-64052800D03*
D23*
X172705200Y-62801000D03*
X173605200Y-62801000D03*
X179950000Y-55140616D03*
X179050000Y-55140616D03*
D24*
X109500000Y-62500000D03*
X109500000Y-58000000D03*
X116000000Y-62500000D03*
X116000000Y-58000000D03*
X109500000Y-74000000D03*
X109500000Y-69500000D03*
X116000000Y-74000000D03*
X116000000Y-69500000D03*
X109500000Y-85500000D03*
X109500000Y-81000000D03*
X116000000Y-85500000D03*
X116000000Y-81000000D03*
X109500000Y-97000000D03*
X109500000Y-92500000D03*
X116000000Y-97000000D03*
X116000000Y-92500000D03*
X121000000Y-62500000D03*
X121000000Y-58000000D03*
X127500000Y-62500000D03*
X127500000Y-58000000D03*
X121000000Y-74000000D03*
X121000000Y-69500000D03*
X127500000Y-74000000D03*
X127500000Y-69500000D03*
X121000000Y-85500000D03*
X121000000Y-81000000D03*
X127500000Y-85500000D03*
X127500000Y-81000000D03*
X121000000Y-97000000D03*
X121000000Y-92500000D03*
X127500000Y-97000000D03*
X127500000Y-92500000D03*
X132500000Y-62500000D03*
X132500000Y-58000000D03*
X139000000Y-62500000D03*
X139000000Y-58000000D03*
X132500000Y-74000000D03*
X132500000Y-69500000D03*
X139000000Y-74000000D03*
X139000000Y-69500000D03*
X132500000Y-85500000D03*
X132500000Y-81000000D03*
X139000000Y-85500000D03*
X139000000Y-81000000D03*
X132500000Y-97000000D03*
X132500000Y-92500000D03*
X139000000Y-97000000D03*
X139000000Y-92500000D03*
X144000000Y-62500000D03*
X144000000Y-58000000D03*
X150500000Y-62500000D03*
X150500000Y-58000000D03*
X144000000Y-74000000D03*
X144000000Y-69500000D03*
X150500000Y-74000000D03*
X150500000Y-69500000D03*
X144000000Y-85500000D03*
X144000000Y-81000000D03*
X150500000Y-85500000D03*
X150500000Y-81000000D03*
X144000000Y-97000000D03*
X144000000Y-92500000D03*
X150500000Y-97000000D03*
X150500000Y-92500000D03*
X157500000Y-62500000D03*
X157500000Y-58000000D03*
X164000000Y-62500000D03*
X164000000Y-58000000D03*
X157500000Y-74000000D03*
X157500000Y-69500000D03*
X164000000Y-74000000D03*
X164000000Y-69500000D03*
X157500000Y-85500000D03*
X157500000Y-81000000D03*
X164000000Y-85500000D03*
X164000000Y-81000000D03*
D25*
X168300000Y-64075000D03*
X168300000Y-64725000D03*
X168300000Y-65375000D03*
X168300000Y-66025000D03*
X168300000Y-66675000D03*
X168300000Y-67325000D03*
X168300000Y-67975000D03*
X168300000Y-68625000D03*
X168300000Y-69275000D03*
X168300000Y-69925000D03*
X174200000Y-69925000D03*
X174200000Y-69275000D03*
X174200000Y-68625000D03*
X174200000Y-67975000D03*
X174200000Y-67325000D03*
X174200000Y-66675000D03*
X174200000Y-66025000D03*
X174200000Y-65375000D03*
X174200000Y-64725000D03*
X174200000Y-64075000D03*
D26*
X178400472Y-62340616D03*
X179670472Y-62340616D03*
X180940472Y-62340616D03*
X182210472Y-62340616D03*
X182210472Y-56940616D03*
X180940472Y-56940616D03*
X179670472Y-56940616D03*
X178400472Y-56940616D03*
D27*
X170700000Y-58400000D03*
X169750000Y-58400000D03*
X168800000Y-58400000D03*
X168800000Y-60600000D03*
X170700000Y-60600000D03*
D23*
X165803600Y-62801000D03*
X166703600Y-62801000D03*
X168703000Y-62801000D03*
X167803000Y-62801000D03*
D28*
X167538400Y-61925200D03*
X170713400Y-53619400D03*
X176961800Y-67995800D03*
X177165000Y-59690000D03*
X170348700Y-66828482D03*
X172000000Y-69500000D03*
X166750000Y-72000000D03*
X175425012Y-70001980D03*
X163000000Y-76750000D03*
X172750000Y-66250000D03*
X172722703Y-65437946D03*
X170316956Y-67933044D03*
X169635101Y-68446197D03*
X170566955Y-71566955D03*
X162575001Y-75325001D03*
X177500000Y-55250000D03*
X175999862Y-68691580D03*
X172471649Y-64099980D03*
X170000000Y-65500000D03*
X169652019Y-69696218D03*
D29*
X172250000Y-60300000D02*
X174727000Y-60300000D01*
X174727000Y-60300000D02*
X177000000Y-62573000D01*
X177000000Y-62573000D02*
X177000000Y-65620800D01*
X177000000Y-65620800D02*
X176170800Y-66450000D01*
X176170800Y-66450000D02*
X176000000Y-66450000D01*
X173225000Y-66675000D02*
X174200000Y-66675000D01*
X171875002Y-66875002D02*
X173024998Y-66875002D01*
X171203480Y-66203480D02*
X171875002Y-66875002D01*
X173024998Y-66875002D02*
X173225000Y-66675000D01*
X170048698Y-66203480D02*
X171203480Y-66203480D01*
X168300000Y-66675000D02*
X169577178Y-66675000D01*
X169577178Y-66675000D02*
X170048698Y-66203480D01*
X176000000Y-66450000D02*
X176050000Y-66450000D01*
X174200000Y-66675000D02*
X175775000Y-66675000D01*
X175775000Y-66675000D02*
X176000000Y-66450000D01*
X166500000Y-64950000D02*
X166400000Y-64950000D01*
X166400000Y-64950000D02*
X165874999Y-65475001D01*
X165874999Y-65475001D02*
X165874999Y-66424999D01*
X165874999Y-66424999D02*
X166400000Y-66950000D01*
X166400000Y-66950000D02*
X166500000Y-66950000D01*
X166500000Y-66950000D02*
X166775000Y-66675000D01*
X166775000Y-66675000D02*
X168300000Y-66675000D01*
X170700000Y-60600000D02*
X171950000Y-60600000D01*
X171950000Y-60600000D02*
X172250000Y-60300000D01*
X175000000Y-52000000D02*
X175000000Y-54000000D01*
X175000000Y-54000000D02*
X175000000Y-55650000D01*
X182050000Y-55140616D02*
X182000000Y-55140616D01*
X182000000Y-55140616D02*
X180859384Y-54000000D01*
X180859384Y-54000000D02*
X175000000Y-54000000D01*
X184000026Y-57040642D02*
X184000026Y-58575736D01*
X182100000Y-55140616D02*
X184000026Y-57040642D01*
X182050000Y-55140616D02*
X182100000Y-55140616D01*
X180000000Y-80000000D02*
X184000026Y-75999974D01*
X180000000Y-82000000D02*
X180000000Y-80000000D01*
X184000026Y-75999974D02*
X184000026Y-59424264D01*
X184000026Y-58575736D02*
X184000026Y-59000000D01*
X184000026Y-59424264D02*
X184000026Y-59000000D01*
X175599120Y-70750000D02*
X176349120Y-70000000D01*
X176349120Y-70000000D02*
X176625002Y-69724118D01*
X176961800Y-67995800D02*
X176961800Y-69387320D01*
X176961800Y-69387320D02*
X176349120Y-70000000D01*
X167500000Y-59500000D02*
X169430000Y-59500000D01*
X167500000Y-57700000D02*
X167500000Y-59500000D01*
X169430000Y-59500000D02*
X169750000Y-59180000D01*
X169350000Y-55850000D02*
X167500000Y-57700000D01*
X169825000Y-55850000D02*
X169350000Y-55850000D01*
X167803000Y-62801000D02*
X167803000Y-62189800D01*
X167803000Y-62189800D02*
X167538400Y-61925200D01*
X172753200Y-61849000D02*
X170508998Y-61849000D01*
X170508998Y-61849000D02*
X169750000Y-61090002D01*
X169750000Y-61090002D02*
X169750000Y-59180000D01*
X169750000Y-59180000D02*
X169750000Y-58400000D01*
X173605200Y-62801000D02*
X173605200Y-62701000D01*
X173605200Y-62701000D02*
X173482000Y-62577800D01*
X167803000Y-62801000D02*
X166703600Y-62801000D01*
X176000000Y-64052800D02*
X176000000Y-63503400D01*
X176000000Y-63503400D02*
X175297600Y-62801000D01*
X175297600Y-62801000D02*
X174055200Y-62801000D01*
X174055200Y-62801000D02*
X173605200Y-62801000D01*
X170713400Y-53619400D02*
X169825000Y-54507800D01*
X169825000Y-54507800D02*
X169825000Y-55850000D01*
X172600000Y-70750000D02*
X175599120Y-70750000D01*
X176000000Y-67600000D02*
X176000000Y-67550000D01*
X170250000Y-72550000D02*
X170800000Y-72550000D01*
X170800000Y-72550000D02*
X172600000Y-70750000D01*
X176000000Y-67550000D02*
X176516000Y-67550000D01*
X176516000Y-67550000D02*
X176961800Y-67995800D01*
X177000000Y-57800000D02*
X177000000Y-59525000D01*
X177000000Y-59525000D02*
X177165000Y-59690000D01*
X182210472Y-62340616D02*
X182210472Y-61315616D01*
X182210472Y-61315616D02*
X180457856Y-59563000D01*
X180457856Y-59563000D02*
X179263000Y-59563000D01*
X179263000Y-59563000D02*
X177500000Y-57800000D01*
X177500000Y-57800000D02*
X177000000Y-57800000D01*
X167250000Y-52000000D02*
X167250000Y-55650000D01*
X167250000Y-55650000D02*
X167400000Y-55800000D01*
X175000000Y-55650000D02*
X174850000Y-55800000D01*
X176000000Y-67550000D02*
X176000000Y-67500000D01*
X176000000Y-67550000D02*
X175775000Y-67325000D01*
X175775000Y-67325000D02*
X174200000Y-67325000D01*
X167400000Y-55800000D02*
X169775000Y-55800000D01*
X169775000Y-55800000D02*
X169825000Y-55850000D01*
X171450000Y-59500000D02*
X170070000Y-59500000D01*
X170070000Y-59500000D02*
X169750000Y-59180000D01*
X172250000Y-59200000D02*
X171750000Y-59200000D01*
X171750000Y-59200000D02*
X171450000Y-59500000D01*
X179950000Y-55140616D02*
X180950000Y-55140616D01*
X182210472Y-56940616D02*
X182210472Y-56401088D01*
X182210472Y-56401088D02*
X180950000Y-55140616D01*
X170500000Y-57420000D02*
X169000000Y-57420000D01*
X169000000Y-57420000D02*
X168800000Y-57620000D01*
X168800000Y-57620000D02*
X168800000Y-58400000D01*
X170700000Y-58400000D02*
X170700000Y-57620000D01*
X170700000Y-57620000D02*
X170500000Y-57420000D01*
X170700000Y-58400000D02*
X171275000Y-58400000D01*
X171275000Y-58400000D02*
X172425000Y-57250000D01*
X172425000Y-57250000D02*
X172425000Y-56750000D01*
X172425000Y-56750000D02*
X172425000Y-55850000D01*
X177000000Y-56700000D02*
X176500000Y-56700000D01*
X176500000Y-56700000D02*
X175700000Y-57500000D01*
X174000000Y-57500000D02*
X172425000Y-55925000D01*
X175700000Y-57500000D02*
X174000000Y-57500000D01*
X172425000Y-55925000D02*
X172425000Y-55850000D01*
X177000000Y-56700000D02*
X178159856Y-56700000D01*
X178159856Y-56700000D02*
X178400472Y-56940616D01*
X180940472Y-56940616D02*
X180940472Y-57965616D01*
X180940472Y-57965616D02*
X183000000Y-60025144D01*
X183000000Y-60025144D02*
X183000000Y-64500000D01*
X183000000Y-64500000D02*
X180750000Y-66750000D01*
X180750000Y-66750000D02*
X180750000Y-67800000D01*
X179670472Y-56940616D02*
X180940472Y-56940616D01*
X174994000Y-77000000D02*
X176994000Y-77000000D01*
X176994000Y-77000000D02*
X177500000Y-77506000D01*
X177500000Y-77506000D02*
X177500000Y-86250000D01*
X177500000Y-86250000D02*
X176750000Y-87000000D01*
X176750000Y-87000000D02*
X174994000Y-87000000D01*
X174994000Y-77000000D02*
X175869000Y-77000000D01*
X175869000Y-77000000D02*
X179669000Y-73200000D01*
X179669000Y-73200000D02*
X179700000Y-73200000D01*
X179700000Y-73200000D02*
X180750000Y-73200000D01*
X169852182Y-67325000D02*
X170048701Y-67128481D01*
X168300000Y-67325000D02*
X169852182Y-67325000D01*
X170048701Y-67128481D02*
X170348700Y-66828482D01*
X109500000Y-74000000D02*
X112000000Y-76500000D01*
X109500000Y-74000000D02*
X110914213Y-74000000D01*
X110914213Y-74000000D02*
X116000000Y-74000000D01*
X109500000Y-62500000D02*
X116000000Y-62500000D01*
X109500000Y-97000000D02*
X116000000Y-97000000D01*
X109500000Y-85500000D02*
X112000000Y-88000000D01*
X109500000Y-85500000D02*
X116000000Y-85500000D01*
X109500000Y-97000000D02*
X112000000Y-99500000D01*
X111950000Y-65000000D02*
X111950000Y-64350000D01*
X111950000Y-64350000D02*
X110100000Y-62500000D01*
X110100000Y-62500000D02*
X109500000Y-62500000D01*
X166450001Y-71700001D02*
X166750000Y-72000000D01*
X166349977Y-71599977D02*
X166450001Y-71700001D01*
X166349977Y-69622798D02*
X166349977Y-71599977D01*
X161727179Y-65000000D02*
X166349977Y-69622798D01*
X148050000Y-65000000D02*
X161727179Y-65000000D01*
X172000000Y-69500000D02*
X172425000Y-69925000D01*
X172425000Y-69925000D02*
X174200000Y-69925000D01*
X136550000Y-65000000D02*
X144500000Y-65000000D01*
X148050000Y-65650000D02*
X148050000Y-65000000D01*
X144500000Y-65000000D02*
X145250000Y-65750000D01*
X145250000Y-65750000D02*
X147950000Y-65750000D01*
X147950000Y-65750000D02*
X148050000Y-65650000D01*
X113550000Y-65000000D02*
X121500000Y-65000000D01*
X121500000Y-65000000D02*
X122250000Y-65750000D01*
X122250000Y-65750000D02*
X124950000Y-65750000D01*
X124950000Y-65750000D02*
X125050000Y-65650000D01*
X125050000Y-65650000D02*
X125050000Y-65000000D01*
X125050000Y-65000000D02*
X132750000Y-65000000D01*
X132750000Y-65000000D02*
X133500000Y-65750000D01*
X133500000Y-65750000D02*
X136450000Y-65750000D01*
X136450000Y-65750000D02*
X136550000Y-65650000D01*
X136550000Y-65650000D02*
X136550000Y-65000000D01*
X175425012Y-69577716D02*
X175425012Y-70001980D01*
X175425012Y-69525012D02*
X175425012Y-69577716D01*
X174200000Y-69275000D02*
X175175000Y-69275000D01*
X175175000Y-69275000D02*
X175425012Y-69525012D01*
X148100000Y-76500000D02*
X162750000Y-76500000D01*
X162750000Y-76500000D02*
X163000000Y-76750000D01*
X136600000Y-76500000D02*
X137250000Y-76500000D01*
X137975001Y-77225001D02*
X148024999Y-77225001D01*
X137250000Y-76500000D02*
X137975001Y-77225001D01*
X148024999Y-77225001D02*
X148100000Y-77150000D01*
X148100000Y-77150000D02*
X148100000Y-76500000D01*
X125100000Y-76500000D02*
X125750000Y-76500000D01*
X125750000Y-76500000D02*
X126475001Y-77225001D01*
X136600000Y-77150000D02*
X136600000Y-76500000D01*
X126475001Y-77225001D02*
X136524999Y-77225001D01*
X136524999Y-77225001D02*
X136600000Y-77150000D01*
X115000000Y-77250000D02*
X125000000Y-77250000D01*
X125000000Y-77250000D02*
X125100000Y-77150000D01*
X125100000Y-77150000D02*
X125100000Y-76500000D01*
X113600000Y-76500000D02*
X114250000Y-76500000D01*
X114250000Y-76500000D02*
X115000000Y-77250000D01*
X172975000Y-66025000D02*
X172750000Y-66250000D01*
X174200000Y-66025000D02*
X172975000Y-66025000D01*
X148100000Y-88000000D02*
X164000000Y-88000000D01*
X164000000Y-88000000D02*
X165549989Y-86450011D01*
X165549989Y-86450011D02*
X165549989Y-78200011D01*
X169500000Y-74250000D02*
X173980002Y-74250000D01*
X165549989Y-78200011D02*
X169500000Y-74250000D01*
X173980002Y-74250000D02*
X175230002Y-73000000D01*
X175230002Y-73000000D02*
X175750000Y-73000000D01*
X136600000Y-88000000D02*
X137250000Y-88000000D01*
X137975001Y-88725001D02*
X148024999Y-88725001D01*
X137250000Y-88000000D02*
X137975001Y-88725001D01*
X148024999Y-88725001D02*
X148100000Y-88650000D01*
X148100000Y-88650000D02*
X148100000Y-88000000D01*
X125100000Y-88000000D02*
X125750000Y-88000000D01*
X125750000Y-88000000D02*
X126475001Y-88725001D01*
X126475001Y-88725001D02*
X136524999Y-88725001D01*
X136524999Y-88725001D02*
X136600000Y-88650000D01*
X136600000Y-88650000D02*
X136600000Y-88000000D01*
X113600000Y-88000000D02*
X113600000Y-88650000D01*
X113600000Y-88650000D02*
X113675001Y-88725001D01*
X113675001Y-88725001D02*
X125024999Y-88725001D01*
X125024999Y-88725001D02*
X125100000Y-88650000D01*
X125100000Y-88650000D02*
X125100000Y-88000000D01*
X172785649Y-65375000D02*
X172722703Y-65437946D01*
X174200000Y-65375000D02*
X172785649Y-65375000D01*
X148100000Y-99500000D02*
X151250000Y-99500000D01*
X166000000Y-86750000D02*
X166000000Y-78500000D01*
X151250000Y-99500000D02*
X152500000Y-98250000D01*
X152500000Y-98250000D02*
X152500000Y-90750000D01*
X152500000Y-90750000D02*
X154750000Y-88500000D01*
X154750000Y-88500000D02*
X164250000Y-88500000D01*
X164250000Y-88500000D02*
X166000000Y-86750000D01*
X175000000Y-71750000D02*
X173750000Y-73000000D01*
X166000000Y-78500000D02*
X169750000Y-74750000D01*
X169750000Y-74750000D02*
X176250000Y-74750000D01*
X176250000Y-74750000D02*
X177000000Y-74000000D01*
X177000000Y-74000000D02*
X177000000Y-71750000D01*
X177000000Y-71750000D02*
X175000000Y-71750000D01*
X136600000Y-99500000D02*
X137250000Y-99500000D01*
X137250000Y-99500000D02*
X137975001Y-100225001D01*
X137975001Y-100225001D02*
X148024999Y-100225001D01*
X148100000Y-100150000D02*
X148100000Y-99500000D01*
X148024999Y-100225001D02*
X148100000Y-100150000D01*
X125100000Y-99500000D02*
X125750000Y-99500000D01*
X125750000Y-99500000D02*
X126475001Y-100225001D01*
X136524999Y-100225001D02*
X136600000Y-100150000D01*
X126475001Y-100225001D02*
X136524999Y-100225001D01*
X136600000Y-100150000D02*
X136600000Y-99500000D01*
X113600000Y-99500000D02*
X114250000Y-99500000D01*
X114250000Y-99500000D02*
X114975001Y-100225001D01*
X114975001Y-100225001D02*
X125024999Y-100225001D01*
X125024999Y-100225001D02*
X125100000Y-100150000D01*
X125100000Y-100150000D02*
X125100000Y-99500000D01*
X127500000Y-74000000D02*
X121000000Y-74000000D01*
X168300000Y-67975000D02*
X169181294Y-67975000D01*
X170205107Y-67821195D02*
X170316956Y-67933044D01*
X169181294Y-67975000D02*
X169335099Y-67821195D01*
X169335099Y-67821195D02*
X170205107Y-67821195D01*
X123500000Y-76500000D02*
X121000000Y-74000000D01*
X121000000Y-62500000D02*
X123450000Y-64950000D01*
X123450000Y-64950000D02*
X123450000Y-65000000D01*
X121000000Y-62500000D02*
X122414213Y-62500000D01*
X122414213Y-62500000D02*
X127500000Y-62500000D01*
X121000000Y-85500000D02*
X123500000Y-88000000D01*
X121000000Y-85500000D02*
X127500000Y-85500000D01*
X121000000Y-97000000D02*
X123500000Y-99500000D01*
X121000000Y-97000000D02*
X127500000Y-97000000D01*
X169275000Y-68625000D02*
X169453803Y-68446197D01*
X168300000Y-68625000D02*
X169275000Y-68625000D01*
X169453803Y-68446197D02*
X169635101Y-68446197D01*
X132500000Y-97000000D02*
X139000000Y-97000000D01*
X132500000Y-97000000D02*
X135000000Y-99500000D01*
X132500000Y-74000000D02*
X133914213Y-74000000D01*
X133914213Y-74000000D02*
X139000000Y-74000000D01*
X135000000Y-76500000D02*
X132500000Y-74000000D01*
X132500000Y-62500000D02*
X134950000Y-64950000D01*
X134950000Y-64950000D02*
X134950000Y-65000000D01*
X132500000Y-62500000D02*
X133914213Y-62500000D01*
X133914213Y-62500000D02*
X139000000Y-62500000D01*
X132500000Y-85500000D02*
X135000000Y-88000000D01*
X132500000Y-85500000D02*
X139000000Y-85500000D01*
X170566955Y-69686150D02*
X170566955Y-71142691D01*
X169352017Y-69071216D02*
X169952021Y-69071216D01*
X170566955Y-71142691D02*
X170566955Y-71566955D01*
X169148233Y-69275000D02*
X169352017Y-69071216D01*
X168300000Y-69275000D02*
X169148233Y-69275000D01*
X169952021Y-69071216D02*
X170566955Y-69686150D01*
X162575001Y-75325001D02*
X161900002Y-76000000D01*
X161900002Y-76000000D02*
X152500000Y-76000000D01*
X152500000Y-76000000D02*
X150500000Y-74000000D01*
X144000000Y-97000000D02*
X150500000Y-97000000D01*
X144000000Y-97000000D02*
X146500000Y-99500000D01*
X144000000Y-74000000D02*
X150500000Y-74000000D01*
X144000000Y-74000000D02*
X146500000Y-76500000D01*
X144000000Y-62500000D02*
X146450000Y-64950000D01*
X146450000Y-64950000D02*
X146450000Y-65000000D01*
X144000000Y-62500000D02*
X145414213Y-62500000D01*
X145414213Y-62500000D02*
X150500000Y-62500000D01*
X144000000Y-85500000D02*
X146500000Y-88000000D01*
X144000000Y-85500000D02*
X150500000Y-85500000D01*
X166500000Y-66050000D02*
X168275000Y-66050000D01*
X168275000Y-66050000D02*
X168300000Y-66025000D01*
X170250000Y-73450000D02*
X170150000Y-73450000D01*
X167249999Y-70477178D02*
X167249999Y-69249999D01*
X165424988Y-67424988D02*
X165424988Y-65025012D01*
X167400020Y-70700020D02*
X167400020Y-70627199D01*
X170150000Y-73450000D02*
X167400020Y-70700020D01*
X166400000Y-64050000D02*
X166500000Y-64050000D01*
X167249999Y-69249999D02*
X165424988Y-67424988D01*
X167400020Y-70627199D02*
X167249999Y-70477178D01*
X165424988Y-65025012D02*
X166400000Y-64050000D01*
X166500000Y-64050000D02*
X168275000Y-64050000D01*
X168275000Y-64050000D02*
X168300000Y-64075000D01*
X177500000Y-55250000D02*
X178940616Y-55250000D01*
X178940616Y-55250000D02*
X179050000Y-55140616D01*
X175933282Y-68625000D02*
X175999862Y-68691580D01*
X174200000Y-68625000D02*
X175933282Y-68625000D01*
X171760600Y-64725000D02*
X173225000Y-64725000D01*
X168490601Y-61455001D02*
X171760600Y-64725000D01*
X164000000Y-58000000D02*
X167300198Y-61300198D01*
X168117802Y-61300198D02*
X168272605Y-61455001D01*
X168272605Y-61455001D02*
X168490601Y-61455001D01*
X167300198Y-61300198D02*
X168117802Y-61300198D01*
X173225000Y-64725000D02*
X174200000Y-64725000D01*
X176000000Y-64952800D02*
X175772200Y-64725000D01*
X175772200Y-64725000D02*
X174200000Y-64725000D01*
X157500000Y-58000000D02*
X164000000Y-58000000D01*
X150500000Y-58000000D02*
X157500000Y-58000000D01*
X144000000Y-58000000D02*
X150500000Y-58000000D01*
X139000000Y-58000000D02*
X144000000Y-58000000D01*
X132500000Y-58000000D02*
X139000000Y-58000000D01*
X127500000Y-58000000D02*
X132500000Y-58000000D01*
X121000000Y-58000000D02*
X127500000Y-58000000D01*
X116000000Y-58000000D02*
X121000000Y-58000000D01*
X109500000Y-58000000D02*
X110914213Y-58000000D01*
X110914213Y-58000000D02*
X116000000Y-58000000D01*
X172705200Y-63866429D02*
X172471649Y-64099980D01*
X172705200Y-62801000D02*
X172705200Y-63866429D01*
X174200000Y-64075000D02*
X172496629Y-64075000D01*
X172496629Y-64075000D02*
X172471649Y-64099980D01*
X157500000Y-69500000D02*
X158914213Y-69500000D01*
X158914213Y-69500000D02*
X164000000Y-69500000D01*
X150500000Y-69500000D02*
X157500000Y-69500000D01*
X144000000Y-69500000D02*
X150500000Y-69500000D01*
X139000000Y-69500000D02*
X144000000Y-69500000D01*
X132500000Y-69500000D02*
X139000000Y-69500000D01*
X127500000Y-69500000D02*
X132500000Y-69500000D01*
X121000000Y-69500000D02*
X122414213Y-69500000D01*
X122414213Y-69500000D02*
X127500000Y-69500000D01*
X116000000Y-69500000D02*
X117414213Y-69500000D01*
X117414213Y-69500000D02*
X121000000Y-69500000D01*
X109500000Y-69500000D02*
X116000000Y-69500000D01*
X169238388Y-63524999D02*
X165725001Y-63524999D01*
X169374389Y-63661000D02*
X169238388Y-63524999D01*
X168300000Y-64725000D02*
X169275000Y-64725000D01*
X169374389Y-64625611D02*
X169374389Y-63661000D01*
X169275000Y-64725000D02*
X169374389Y-64625611D01*
X165803600Y-62801000D02*
X165803600Y-63351000D01*
X165803600Y-63351000D02*
X165725001Y-63429599D01*
X165725001Y-63429599D02*
X165725001Y-63524999D01*
X164974977Y-67611388D02*
X166799988Y-69436398D01*
X167500000Y-71500000D02*
X167500000Y-74000000D01*
X164000000Y-77500000D02*
X164000000Y-79585787D01*
X165725001Y-63524999D02*
X164974977Y-64275023D01*
X164974977Y-64275023D02*
X164974977Y-67611388D01*
X166799988Y-70799988D02*
X167500000Y-71500000D01*
X166799988Y-69436398D02*
X166799988Y-70799988D01*
X167500000Y-74000000D02*
X164000000Y-77500000D01*
X164000000Y-79585787D02*
X164000000Y-81000000D01*
X157500000Y-81000000D02*
X164000000Y-81000000D01*
X150500000Y-81000000D02*
X157500000Y-81000000D01*
X144000000Y-81000000D02*
X150500000Y-81000000D01*
X139000000Y-81000000D02*
X140414213Y-81000000D01*
X140414213Y-81000000D02*
X144000000Y-81000000D01*
X132500000Y-81000000D02*
X139000000Y-81000000D01*
X127500000Y-81000000D02*
X128914213Y-81000000D01*
X128914213Y-81000000D02*
X132500000Y-81000000D01*
X121000000Y-81000000D02*
X122414213Y-81000000D01*
X122414213Y-81000000D02*
X127500000Y-81000000D01*
X116000000Y-81000000D02*
X117414213Y-81000000D01*
X117414213Y-81000000D02*
X121000000Y-81000000D01*
X109500000Y-81000000D02*
X116000000Y-81000000D01*
X168703000Y-62801000D02*
X169153000Y-62801000D01*
X169153000Y-62801000D02*
X170000000Y-63648000D01*
X170000000Y-63648000D02*
X170000000Y-65500000D01*
X168300000Y-65375000D02*
X169875000Y-65375000D01*
X169875000Y-65375000D02*
X170000000Y-65500000D01*
X144000000Y-92500000D02*
X145414213Y-92500000D01*
X145414213Y-92500000D02*
X150500000Y-92500000D01*
X139000000Y-92500000D02*
X140414213Y-92500000D01*
X140414213Y-92500000D02*
X144000000Y-92500000D01*
X132500000Y-92500000D02*
X139000000Y-92500000D01*
X127500000Y-92500000D02*
X128914213Y-92500000D01*
X128914213Y-92500000D02*
X132500000Y-92500000D01*
X121000000Y-92500000D02*
X127500000Y-92500000D01*
X116000000Y-92500000D02*
X121000000Y-92500000D01*
X109500000Y-92500000D02*
X110914213Y-92500000D01*
X110914213Y-92500000D02*
X116000000Y-92500000D01*
X168300000Y-69925000D02*
X169423237Y-69925000D01*
X169423237Y-69925000D02*
X169652019Y-69696218D01*
X157500000Y-62500000D02*
X158914213Y-62500000D01*
X158914213Y-62500000D02*
X164000000Y-62500000D01*
X157500000Y-74000000D02*
X164000000Y-74000000D01*
X157500000Y-85500000D02*
X158914213Y-85500000D01*
X158914213Y-85500000D02*
X164000000Y-85500000D01*
D30*
G36*
X176873000Y-70873000D02*
X175765415Y-70873000D01*
X175953955Y-70795097D01*
X176217204Y-70532307D01*
X176359850Y-70188779D01*
X176360174Y-69816813D01*
X176267550Y-69592645D01*
X176528805Y-69484697D01*
X176792054Y-69221907D01*
X176873000Y-69026968D01*
X176873000Y-70873000D01*
X176873000Y-70873000D01*
G37*
X176873000Y-70873000D02*
X175765415Y-70873000D01*
X175953955Y-70795097D01*
X176217204Y-70532307D01*
X176359850Y-70188779D01*
X176360174Y-69816813D01*
X176267550Y-69592645D01*
X176528805Y-69484697D01*
X176792054Y-69221907D01*
X176873000Y-69026968D01*
X176873000Y-70873000D01*
G36*
X171469673Y-70292192D02*
X171813201Y-70434838D01*
X171860077Y-70434879D01*
X171887599Y-70462401D01*
X172134161Y-70627148D01*
X172425000Y-70685000D01*
X173133203Y-70685000D01*
X173223110Y-70746431D01*
X173475000Y-70797440D01*
X174902555Y-70797440D01*
X175084523Y-70873000D01*
X171326955Y-70873000D01*
X171326955Y-70149225D01*
X171469673Y-70292192D01*
X171469673Y-70292192D01*
G37*
X171469673Y-70292192D02*
X171813201Y-70434838D01*
X171860077Y-70434879D01*
X171887599Y-70462401D01*
X172134161Y-70627148D01*
X172425000Y-70685000D01*
X173133203Y-70685000D01*
X173223110Y-70746431D01*
X173475000Y-70797440D01*
X174902555Y-70797440D01*
X175084523Y-70873000D01*
X171326955Y-70873000D01*
X171326955Y-70149225D01*
X171469673Y-70292192D01*
G36*
X176125000Y-67423000D02*
X176147000Y-67423000D01*
X176147000Y-67677000D01*
X176125000Y-67677000D01*
X176125000Y-67697000D01*
X175875000Y-67697000D01*
X175875000Y-67677000D01*
X175853000Y-67677000D01*
X175853000Y-67423000D01*
X175875000Y-67423000D01*
X175875000Y-67415109D01*
X175935874Y-67403000D01*
X176125000Y-67403000D01*
X176125000Y-67423000D01*
X176125000Y-67423000D01*
G37*
X176125000Y-67423000D02*
X176147000Y-67423000D01*
X176147000Y-67677000D01*
X176125000Y-67677000D01*
X176125000Y-67697000D01*
X175875000Y-67697000D01*
X175875000Y-67677000D01*
X175853000Y-67677000D01*
X175853000Y-67423000D01*
X175875000Y-67423000D01*
X175875000Y-67415109D01*
X175935874Y-67403000D01*
X176125000Y-67403000D01*
X176125000Y-67423000D01*
G36*
X175916144Y-62563946D02*
X175917230Y-63217800D01*
X175872998Y-63217800D01*
X175872998Y-63376548D01*
X175714250Y-63217800D01*
X175573690Y-63217800D01*
X175340301Y-63314473D01*
X175310152Y-63344623D01*
X175176890Y-63253569D01*
X174925000Y-63202560D01*
X174440200Y-63202560D01*
X174440200Y-63086750D01*
X174281450Y-62928000D01*
X173705200Y-62928000D01*
X173705200Y-62948000D01*
X173552640Y-62948000D01*
X173552640Y-62501000D01*
X173508362Y-62265683D01*
X173505200Y-62260769D01*
X173505200Y-62024750D01*
X173705200Y-62024750D01*
X173705200Y-62674000D01*
X174281450Y-62674000D01*
X174440200Y-62515250D01*
X174440200Y-62374690D01*
X174343527Y-62141301D01*
X174164898Y-61962673D01*
X173931509Y-61866000D01*
X173863950Y-61866000D01*
X173705200Y-62024750D01*
X173505200Y-62024750D01*
X173346450Y-61866000D01*
X173278891Y-61866000D01*
X173167917Y-61911967D01*
X173157090Y-61904569D01*
X172905200Y-61853560D01*
X172505200Y-61853560D01*
X172269883Y-61897838D01*
X172053759Y-62036910D01*
X171908769Y-62249110D01*
X171857760Y-62501000D01*
X171857760Y-63101000D01*
X171902038Y-63336317D01*
X171906404Y-63343102D01*
X171679756Y-63569354D01*
X169628419Y-61518017D01*
X169721431Y-61381890D01*
X169749176Y-61244880D01*
X169771838Y-61365317D01*
X169910910Y-61581441D01*
X170123110Y-61726431D01*
X170375000Y-61777440D01*
X171025000Y-61777440D01*
X171260317Y-61733162D01*
X171476441Y-61594090D01*
X171621431Y-61381890D01*
X171625864Y-61360000D01*
X171950000Y-61360000D01*
X172240839Y-61302148D01*
X172322716Y-61247440D01*
X172500000Y-61247440D01*
X172735317Y-61203162D01*
X172951441Y-61064090D01*
X172954236Y-61060000D01*
X174412198Y-61060000D01*
X175916144Y-62563946D01*
X175916144Y-62563946D01*
G37*
X175916144Y-62563946D02*
X175917230Y-63217800D01*
X175872998Y-63217800D01*
X175872998Y-63376548D01*
X175714250Y-63217800D01*
X175573690Y-63217800D01*
X175340301Y-63314473D01*
X175310152Y-63344623D01*
X175176890Y-63253569D01*
X174925000Y-63202560D01*
X174440200Y-63202560D01*
X174440200Y-63086750D01*
X174281450Y-62928000D01*
X173705200Y-62928000D01*
X173705200Y-62948000D01*
X173552640Y-62948000D01*
X173552640Y-62501000D01*
X173508362Y-62265683D01*
X173505200Y-62260769D01*
X173505200Y-62024750D01*
X173705200Y-62024750D01*
X173705200Y-62674000D01*
X174281450Y-62674000D01*
X174440200Y-62515250D01*
X174440200Y-62374690D01*
X174343527Y-62141301D01*
X174164898Y-61962673D01*
X173931509Y-61866000D01*
X173863950Y-61866000D01*
X173705200Y-62024750D01*
X173505200Y-62024750D01*
X173346450Y-61866000D01*
X173278891Y-61866000D01*
X173167917Y-61911967D01*
X173157090Y-61904569D01*
X172905200Y-61853560D01*
X172505200Y-61853560D01*
X172269883Y-61897838D01*
X172053759Y-62036910D01*
X171908769Y-62249110D01*
X171857760Y-62501000D01*
X171857760Y-63101000D01*
X171902038Y-63336317D01*
X171906404Y-63343102D01*
X171679756Y-63569354D01*
X169628419Y-61518017D01*
X169721431Y-61381890D01*
X169749176Y-61244880D01*
X169771838Y-61365317D01*
X169910910Y-61581441D01*
X170123110Y-61726431D01*
X170375000Y-61777440D01*
X171025000Y-61777440D01*
X171260317Y-61733162D01*
X171476441Y-61594090D01*
X171621431Y-61381890D01*
X171625864Y-61360000D01*
X171950000Y-61360000D01*
X172240839Y-61302148D01*
X172322716Y-61247440D01*
X172500000Y-61247440D01*
X172735317Y-61203162D01*
X172951441Y-61064090D01*
X172954236Y-61060000D01*
X174412198Y-61060000D01*
X175916144Y-62563946D01*
G36*
X166484204Y-50729598D02*
X166180707Y-51094620D01*
X166040000Y-51548000D01*
X166040000Y-51873000D01*
X167123000Y-51873000D01*
X167123000Y-51853000D01*
X167377000Y-51853000D01*
X167377000Y-51873000D01*
X168460000Y-51873000D01*
X168460000Y-51548000D01*
X168319293Y-51094620D01*
X168015796Y-50729598D01*
X167978559Y-50710000D01*
X174271441Y-50710000D01*
X174234204Y-50729598D01*
X173930707Y-51094620D01*
X173790000Y-51548000D01*
X173790000Y-51873000D01*
X174873000Y-51873000D01*
X174873000Y-51853000D01*
X175127000Y-51853000D01*
X175127000Y-51873000D01*
X175147000Y-51873000D01*
X175147000Y-52127000D01*
X175127000Y-52127000D01*
X175127000Y-53368550D01*
X175313677Y-53493635D01*
X175345714Y-53491495D01*
X175765796Y-53270402D01*
X175900438Y-53108466D01*
X175903076Y-54696636D01*
X175721862Y-54473533D01*
X175253116Y-54219924D01*
X175187258Y-54207481D01*
X174977000Y-54330482D01*
X174977000Y-55673000D01*
X174997000Y-55673000D01*
X174997000Y-55927000D01*
X174977000Y-55927000D01*
X174977000Y-55947000D01*
X174723000Y-55947000D01*
X174723000Y-55927000D01*
X173501802Y-55927000D01*
X173298987Y-55724185D01*
X173604723Y-55785000D01*
X173645277Y-55785000D01*
X174041354Y-55706215D01*
X174091064Y-55673000D01*
X174723000Y-55673000D01*
X174723000Y-54330482D01*
X174512742Y-54207481D01*
X174504663Y-54209007D01*
X174377133Y-54018144D01*
X174041354Y-53793785D01*
X173645277Y-53715000D01*
X173604723Y-53715000D01*
X173208646Y-53793785D01*
X172872867Y-54018144D01*
X172648508Y-54353923D01*
X172608996Y-54552560D01*
X172200000Y-54552560D01*
X172096329Y-54572067D01*
X172000000Y-54552560D01*
X171550000Y-54552560D01*
X171446329Y-54572067D01*
X171350000Y-54552560D01*
X170900000Y-54552560D01*
X170796329Y-54572067D01*
X170700000Y-54552560D01*
X170250000Y-54552560D01*
X170178676Y-54565981D01*
X170176309Y-54565000D01*
X170096250Y-54565000D01*
X170075938Y-54585312D01*
X170014683Y-54596838D01*
X169798559Y-54735910D01*
X169712500Y-54861862D01*
X169712500Y-54723750D01*
X169665758Y-54677008D01*
X169601492Y-54353923D01*
X169377133Y-54018144D01*
X169041354Y-53793785D01*
X168645277Y-53715000D01*
X168604723Y-53715000D01*
X168208646Y-53793785D01*
X167872867Y-54018144D01*
X167745337Y-54209007D01*
X167737258Y-54207481D01*
X167527000Y-54330482D01*
X167527000Y-55673000D01*
X168158936Y-55673000D01*
X168208646Y-55706215D01*
X168604723Y-55785000D01*
X168645277Y-55785000D01*
X169041354Y-55706215D01*
X169080685Y-55679935D01*
X169123750Y-55723000D01*
X169602560Y-55723000D01*
X169602560Y-55977000D01*
X169123750Y-55977000D01*
X168965000Y-56135750D01*
X168965000Y-56626310D01*
X168980557Y-56663868D01*
X168709161Y-56717852D01*
X168478658Y-56871869D01*
X168607875Y-56712782D01*
X168760000Y-56202000D01*
X168760000Y-55927000D01*
X167527000Y-55927000D01*
X167527000Y-57269518D01*
X167737258Y-57392519D01*
X167803116Y-57380076D01*
X168211447Y-57159154D01*
X168097852Y-57329161D01*
X168091250Y-57362352D01*
X168023559Y-57405910D01*
X167878569Y-57618110D01*
X167827560Y-57870000D01*
X167827560Y-58930000D01*
X167871838Y-59165317D01*
X168010910Y-59381441D01*
X168186232Y-59501233D01*
X168023559Y-59605910D01*
X167878569Y-59818110D01*
X167827560Y-60070000D01*
X167827560Y-60540198D01*
X167615000Y-60540198D01*
X165877000Y-58802198D01*
X165877000Y-55927000D01*
X166040000Y-55927000D01*
X166040000Y-56202000D01*
X166192125Y-56712782D01*
X166528138Y-57126467D01*
X166996884Y-57380076D01*
X167062742Y-57392519D01*
X167273000Y-57269518D01*
X167273000Y-55927000D01*
X166040000Y-55927000D01*
X165877000Y-55927000D01*
X165877000Y-55398000D01*
X166040000Y-55398000D01*
X166040000Y-55673000D01*
X167273000Y-55673000D01*
X167273000Y-54330482D01*
X167062742Y-54207481D01*
X166996884Y-54219924D01*
X166528138Y-54473533D01*
X166192125Y-54887218D01*
X166040000Y-55398000D01*
X165877000Y-55398000D01*
X165877000Y-52127000D01*
X166040000Y-52127000D01*
X166040000Y-52452000D01*
X166180707Y-52905380D01*
X166484204Y-53270402D01*
X166904286Y-53491495D01*
X166936323Y-53493635D01*
X167123000Y-53368550D01*
X167123000Y-52127000D01*
X167377000Y-52127000D01*
X167377000Y-53368550D01*
X167563677Y-53493635D01*
X167595714Y-53491495D01*
X168015796Y-53270402D01*
X168319293Y-52905380D01*
X168460000Y-52452000D01*
X168460000Y-52127000D01*
X173790000Y-52127000D01*
X173790000Y-52452000D01*
X173930707Y-52905380D01*
X174234204Y-53270402D01*
X174654286Y-53491495D01*
X174686323Y-53493635D01*
X174873000Y-53368550D01*
X174873000Y-52127000D01*
X173790000Y-52127000D01*
X168460000Y-52127000D01*
X167377000Y-52127000D01*
X167123000Y-52127000D01*
X166040000Y-52127000D01*
X165877000Y-52127000D01*
X165877000Y-50710000D01*
X166521441Y-50710000D01*
X166484204Y-50729598D01*
X166484204Y-50729598D01*
G37*
X166484204Y-50729598D02*
X166180707Y-51094620D01*
X166040000Y-51548000D01*
X166040000Y-51873000D01*
X167123000Y-51873000D01*
X167123000Y-51853000D01*
X167377000Y-51853000D01*
X167377000Y-51873000D01*
X168460000Y-51873000D01*
X168460000Y-51548000D01*
X168319293Y-51094620D01*
X168015796Y-50729598D01*
X167978559Y-50710000D01*
X174271441Y-50710000D01*
X174234204Y-50729598D01*
X173930707Y-51094620D01*
X173790000Y-51548000D01*
X173790000Y-51873000D01*
X174873000Y-51873000D01*
X174873000Y-51853000D01*
X175127000Y-51853000D01*
X175127000Y-51873000D01*
X175147000Y-51873000D01*
X175147000Y-52127000D01*
X175127000Y-52127000D01*
X175127000Y-53368550D01*
X175313677Y-53493635D01*
X175345714Y-53491495D01*
X175765796Y-53270402D01*
X175900438Y-53108466D01*
X175903076Y-54696636D01*
X175721862Y-54473533D01*
X175253116Y-54219924D01*
X175187258Y-54207481D01*
X174977000Y-54330482D01*
X174977000Y-55673000D01*
X174997000Y-55673000D01*
X174997000Y-55927000D01*
X174977000Y-55927000D01*
X174977000Y-55947000D01*
X174723000Y-55947000D01*
X174723000Y-55927000D01*
X173501802Y-55927000D01*
X173298987Y-55724185D01*
X173604723Y-55785000D01*
X173645277Y-55785000D01*
X174041354Y-55706215D01*
X174091064Y-55673000D01*
X174723000Y-55673000D01*
X174723000Y-54330482D01*
X174512742Y-54207481D01*
X174504663Y-54209007D01*
X174377133Y-54018144D01*
X174041354Y-53793785D01*
X173645277Y-53715000D01*
X173604723Y-53715000D01*
X173208646Y-53793785D01*
X172872867Y-54018144D01*
X172648508Y-54353923D01*
X172608996Y-54552560D01*
X172200000Y-54552560D01*
X172096329Y-54572067D01*
X172000000Y-54552560D01*
X171550000Y-54552560D01*
X171446329Y-54572067D01*
X171350000Y-54552560D01*
X170900000Y-54552560D01*
X170796329Y-54572067D01*
X170700000Y-54552560D01*
X170250000Y-54552560D01*
X170178676Y-54565981D01*
X170176309Y-54565000D01*
X170096250Y-54565000D01*
X170075938Y-54585312D01*
X170014683Y-54596838D01*
X169798559Y-54735910D01*
X169712500Y-54861862D01*
X169712500Y-54723750D01*
X169665758Y-54677008D01*
X169601492Y-54353923D01*
X169377133Y-54018144D01*
X169041354Y-53793785D01*
X168645277Y-53715000D01*
X168604723Y-53715000D01*
X168208646Y-53793785D01*
X167872867Y-54018144D01*
X167745337Y-54209007D01*
X167737258Y-54207481D01*
X167527000Y-54330482D01*
X167527000Y-55673000D01*
X168158936Y-55673000D01*
X168208646Y-55706215D01*
X168604723Y-55785000D01*
X168645277Y-55785000D01*
X169041354Y-55706215D01*
X169080685Y-55679935D01*
X169123750Y-55723000D01*
X169602560Y-55723000D01*
X169602560Y-55977000D01*
X169123750Y-55977000D01*
X168965000Y-56135750D01*
X168965000Y-56626310D01*
X168980557Y-56663868D01*
X168709161Y-56717852D01*
X168478658Y-56871869D01*
X168607875Y-56712782D01*
X168760000Y-56202000D01*
X168760000Y-55927000D01*
X167527000Y-55927000D01*
X167527000Y-57269518D01*
X167737258Y-57392519D01*
X167803116Y-57380076D01*
X168211447Y-57159154D01*
X168097852Y-57329161D01*
X168091250Y-57362352D01*
X168023559Y-57405910D01*
X167878569Y-57618110D01*
X167827560Y-57870000D01*
X167827560Y-58930000D01*
X167871838Y-59165317D01*
X168010910Y-59381441D01*
X168186232Y-59501233D01*
X168023559Y-59605910D01*
X167878569Y-59818110D01*
X167827560Y-60070000D01*
X167827560Y-60540198D01*
X167615000Y-60540198D01*
X165877000Y-58802198D01*
X165877000Y-55927000D01*
X166040000Y-55927000D01*
X166040000Y-56202000D01*
X166192125Y-56712782D01*
X166528138Y-57126467D01*
X166996884Y-57380076D01*
X167062742Y-57392519D01*
X167273000Y-57269518D01*
X167273000Y-55927000D01*
X166040000Y-55927000D01*
X165877000Y-55927000D01*
X165877000Y-55398000D01*
X166040000Y-55398000D01*
X166040000Y-55673000D01*
X167273000Y-55673000D01*
X167273000Y-54330482D01*
X167062742Y-54207481D01*
X166996884Y-54219924D01*
X166528138Y-54473533D01*
X166192125Y-54887218D01*
X166040000Y-55398000D01*
X165877000Y-55398000D01*
X165877000Y-52127000D01*
X166040000Y-52127000D01*
X166040000Y-52452000D01*
X166180707Y-52905380D01*
X166484204Y-53270402D01*
X166904286Y-53491495D01*
X166936323Y-53493635D01*
X167123000Y-53368550D01*
X167123000Y-52127000D01*
X167377000Y-52127000D01*
X167377000Y-53368550D01*
X167563677Y-53493635D01*
X167595714Y-53491495D01*
X168015796Y-53270402D01*
X168319293Y-52905380D01*
X168460000Y-52452000D01*
X168460000Y-52127000D01*
X173790000Y-52127000D01*
X173790000Y-52452000D01*
X173930707Y-52905380D01*
X174234204Y-53270402D01*
X174654286Y-53491495D01*
X174686323Y-53493635D01*
X174873000Y-53368550D01*
X174873000Y-52127000D01*
X173790000Y-52127000D01*
X168460000Y-52127000D01*
X167377000Y-52127000D01*
X167123000Y-52127000D01*
X166040000Y-52127000D01*
X165877000Y-52127000D01*
X165877000Y-50710000D01*
X166521441Y-50710000D01*
X166484204Y-50729598D01*
G36*
X173462599Y-58037401D02*
X173709160Y-58202148D01*
X174000000Y-58260000D01*
X175700000Y-58260000D01*
X175908926Y-58218442D01*
X175912568Y-60410766D01*
X175264401Y-59762599D01*
X175017839Y-59597852D01*
X174727000Y-59540000D01*
X173135000Y-59540000D01*
X173135000Y-59485750D01*
X172976250Y-59327000D01*
X172375000Y-59327000D01*
X172375000Y-59347000D01*
X172125000Y-59347000D01*
X172125000Y-59327000D01*
X172103000Y-59327000D01*
X172103000Y-59073000D01*
X172125000Y-59073000D01*
X172125000Y-59053000D01*
X172375000Y-59053000D01*
X172375000Y-59073000D01*
X172976250Y-59073000D01*
X173135000Y-58914250D01*
X173135000Y-58773691D01*
X173038327Y-58540302D01*
X172859699Y-58361673D01*
X172626310Y-58265000D01*
X172533750Y-58265000D01*
X172377002Y-58421748D01*
X172377002Y-58372800D01*
X172962401Y-57787401D01*
X173062616Y-57637418D01*
X173462599Y-58037401D01*
X173462599Y-58037401D01*
G37*
X173462599Y-58037401D02*
X173709160Y-58202148D01*
X174000000Y-58260000D01*
X175700000Y-58260000D01*
X175908926Y-58218442D01*
X175912568Y-60410766D01*
X175264401Y-59762599D01*
X175017839Y-59597852D01*
X174727000Y-59540000D01*
X173135000Y-59540000D01*
X173135000Y-59485750D01*
X172976250Y-59327000D01*
X172375000Y-59327000D01*
X172375000Y-59347000D01*
X172125000Y-59347000D01*
X172125000Y-59327000D01*
X172103000Y-59327000D01*
X172103000Y-59073000D01*
X172125000Y-59073000D01*
X172125000Y-59053000D01*
X172375000Y-59053000D01*
X172375000Y-59073000D01*
X172976250Y-59073000D01*
X173135000Y-58914250D01*
X173135000Y-58773691D01*
X173038327Y-58540302D01*
X172859699Y-58361673D01*
X172626310Y-58265000D01*
X172533750Y-58265000D01*
X172377002Y-58421748D01*
X172377002Y-58372800D01*
X172962401Y-57787401D01*
X173062616Y-57637418D01*
X173462599Y-58037401D01*
G36*
X169771838Y-59165317D02*
X169877000Y-59328743D01*
X169877000Y-59406250D01*
X170016715Y-59545965D01*
X169923559Y-59605910D01*
X169778569Y-59818110D01*
X169750824Y-59955120D01*
X169728162Y-59834683D01*
X169589090Y-59618559D01*
X169483106Y-59546144D01*
X169623000Y-59406250D01*
X169623000Y-59325949D01*
X169721431Y-59181890D01*
X169749176Y-59044880D01*
X169771838Y-59165317D01*
X169771838Y-59165317D01*
G37*
X169771838Y-59165317D02*
X169877000Y-59328743D01*
X169877000Y-59406250D01*
X170016715Y-59545965D01*
X169923559Y-59605910D01*
X169778569Y-59818110D01*
X169750824Y-59955120D01*
X169728162Y-59834683D01*
X169589090Y-59618559D01*
X169483106Y-59546144D01*
X169623000Y-59406250D01*
X169623000Y-59325949D01*
X169721431Y-59181890D01*
X169749176Y-59044880D01*
X169771838Y-59165317D01*
M02*
