G04 #@! TF.FileFunction,Copper,L2,Bot,Signal*
%FSLAX46Y46*%
G04 Gerber Fmt 4.6, Leading zero omitted, Abs format (unit mm)*
G04 Created by KiCad (PCBNEW 4.0.0-rc2-stable) date 16/03/2018 16:43:17*
%MOMM*%
G01*
G04 APERTURE LIST*
%ADD10C,0.100000*%
%ADD11R,2.500000X3.500000*%
%ADD12O,3.500000X1.750000*%
%ADD13R,1.350000X1.350000*%
%ADD14O,1.350000X1.350000*%
%ADD15O,1.450000X2.000000*%
%ADD16O,1.150000X1.800000*%
%ADD17C,2.000000*%
%ADD18C,0.600000*%
%ADD19C,0.250000*%
G04 APERTURE END LIST*
D10*
D11*
X180000000Y-82000000D03*
D12*
X174994000Y-87000000D03*
X174994000Y-77000000D03*
X174994000Y-84500000D03*
X174994000Y-79500000D03*
D13*
X175750000Y-73000000D03*
D14*
X173750000Y-73000000D03*
D15*
X174850000Y-55800000D03*
X167400000Y-55800000D03*
D16*
X175000000Y-52000000D03*
X167250000Y-52000000D03*
D17*
X109500000Y-62500000D03*
X109500000Y-58000000D03*
X116000000Y-62500000D03*
X116000000Y-58000000D03*
X109500000Y-74000000D03*
X109500000Y-69500000D03*
X116000000Y-74000000D03*
X116000000Y-69500000D03*
X109500000Y-85500000D03*
X109500000Y-81000000D03*
X116000000Y-85500000D03*
X116000000Y-81000000D03*
X109500000Y-97000000D03*
X109500000Y-92500000D03*
X116000000Y-97000000D03*
X116000000Y-92500000D03*
X121000000Y-62500000D03*
X121000000Y-58000000D03*
X127500000Y-62500000D03*
X127500000Y-58000000D03*
X121000000Y-74000000D03*
X121000000Y-69500000D03*
X127500000Y-74000000D03*
X127500000Y-69500000D03*
X121000000Y-85500000D03*
X121000000Y-81000000D03*
X127500000Y-85500000D03*
X127500000Y-81000000D03*
X121000000Y-97000000D03*
X121000000Y-92500000D03*
X127500000Y-97000000D03*
X127500000Y-92500000D03*
X132500000Y-62500000D03*
X132500000Y-58000000D03*
X139000000Y-62500000D03*
X139000000Y-58000000D03*
X132500000Y-74000000D03*
X132500000Y-69500000D03*
X139000000Y-74000000D03*
X139000000Y-69500000D03*
X132500000Y-85500000D03*
X132500000Y-81000000D03*
X139000000Y-85500000D03*
X139000000Y-81000000D03*
X132500000Y-97000000D03*
X132500000Y-92500000D03*
X139000000Y-97000000D03*
X139000000Y-92500000D03*
X144000000Y-62500000D03*
X144000000Y-58000000D03*
X150500000Y-62500000D03*
X150500000Y-58000000D03*
X144000000Y-74000000D03*
X144000000Y-69500000D03*
X150500000Y-74000000D03*
X150500000Y-69500000D03*
X144000000Y-85500000D03*
X144000000Y-81000000D03*
X150500000Y-85500000D03*
X150500000Y-81000000D03*
X144000000Y-97000000D03*
X144000000Y-92500000D03*
X150500000Y-97000000D03*
X150500000Y-92500000D03*
X157500000Y-62500000D03*
X157500000Y-58000000D03*
X164000000Y-62500000D03*
X164000000Y-58000000D03*
X157500000Y-74000000D03*
X157500000Y-69500000D03*
X164000000Y-74000000D03*
X164000000Y-69500000D03*
X157500000Y-85500000D03*
X157500000Y-81000000D03*
X164000000Y-85500000D03*
X164000000Y-81000000D03*
D18*
X167538400Y-61925200D03*
X170713400Y-53619400D03*
X176961800Y-67995800D03*
X177165000Y-59690000D03*
X170348700Y-66828482D03*
X172000000Y-69500000D03*
X166750000Y-72000000D03*
X175425012Y-70001980D03*
X163000000Y-76750000D03*
X172750000Y-66250000D03*
X172722703Y-65437946D03*
X170316956Y-67933044D03*
X169635101Y-68446197D03*
X170566955Y-71566955D03*
X162575001Y-75325001D03*
X177500000Y-55250000D03*
X175999862Y-68691580D03*
X172471649Y-64099980D03*
X170000000Y-65500000D03*
X169652019Y-69696218D03*
D19*
X177850800Y-59004200D02*
X177850800Y-58178200D01*
X177850800Y-58178200D02*
X177850800Y-56896000D01*
X169341800Y-60121800D02*
X169341800Y-54991000D01*
X169341800Y-54991000D02*
X170713400Y-53619400D01*
X167538400Y-61925200D02*
X169341800Y-60121800D01*
X174850000Y-59559400D02*
X170713400Y-55422800D01*
X170713400Y-55422800D02*
X170713400Y-53619400D01*
X174850000Y-68779600D02*
X174850000Y-59559400D01*
X177469800Y-53644800D02*
X170738800Y-53644800D01*
X170738800Y-53644800D02*
X170713400Y-53619400D01*
X178460400Y-54635400D02*
X177469800Y-53644800D01*
X176961800Y-67995800D02*
X176961800Y-68540283D01*
X176961800Y-68540283D02*
X176834800Y-68667283D01*
X176834800Y-68667283D02*
X176834800Y-69189600D01*
X176834800Y-69189600D02*
X176631600Y-69392800D01*
X176631600Y-69392800D02*
X175740834Y-69392800D01*
X175740834Y-69392800D02*
X175725013Y-69376979D01*
X175725013Y-69376979D02*
X175447379Y-69376979D01*
X175447379Y-69376979D02*
X174850000Y-68779600D01*
X178460400Y-56286400D02*
X178460400Y-54635400D01*
X177850800Y-56896000D02*
X178460400Y-56286400D01*
X177165000Y-59690000D02*
X177850800Y-59004200D01*
X167177999Y-62464401D02*
X167177999Y-63657781D01*
X170048701Y-66528483D02*
X170348700Y-66828482D01*
X116000000Y-62500000D02*
X118900020Y-59599980D01*
X167177999Y-63657781D02*
X170048701Y-66528483D01*
X164313578Y-59599980D02*
X167177999Y-62464401D01*
X118900020Y-59599980D02*
X164313578Y-59599980D01*
X109500000Y-85500000D02*
X110825001Y-86825001D01*
X110825001Y-86825001D02*
X110825001Y-95674999D01*
X110825001Y-95674999D02*
X110499999Y-96000001D01*
X110499999Y-96000001D02*
X109500000Y-97000000D01*
X109500000Y-74000000D02*
X109500000Y-75414213D01*
X109500000Y-75414213D02*
X110825001Y-76739214D01*
X110825001Y-76739214D02*
X110825001Y-84174999D01*
X110825001Y-84174999D02*
X110499999Y-84500001D01*
X110499999Y-84500001D02*
X109500000Y-85500000D01*
X109500000Y-62500000D02*
X110825001Y-63825001D01*
X110825001Y-72674999D02*
X110499999Y-73000001D01*
X110825001Y-63825001D02*
X110825001Y-72674999D01*
X110499999Y-73000001D02*
X109500000Y-74000000D01*
X171750000Y-69500000D02*
X172000000Y-69500000D01*
X169549999Y-71700001D02*
X171750000Y-69500000D01*
X166750000Y-72000000D02*
X167049999Y-71700001D01*
X167049999Y-71700001D02*
X169549999Y-71700001D01*
X163847413Y-76750000D02*
X165097413Y-75500000D01*
X175725011Y-70301979D02*
X175425012Y-70001980D01*
X176750001Y-73935001D02*
X176750001Y-71326969D01*
X175000000Y-74500000D02*
X176185002Y-74500000D01*
X176185002Y-74500000D02*
X176750001Y-73935001D01*
X174000000Y-75500000D02*
X175000000Y-74500000D01*
X165097413Y-75500000D02*
X174000000Y-75500000D01*
X163000000Y-76750000D02*
X163847413Y-76750000D01*
X176750001Y-71326969D02*
X175725011Y-70301979D01*
X172750000Y-69675004D02*
X172450001Y-69975003D01*
X172450001Y-69975003D02*
X172450001Y-73450001D01*
X172750000Y-66250000D02*
X172750000Y-69675004D01*
X173000001Y-74000001D02*
X174749999Y-74000001D01*
X174749999Y-74000001D02*
X175750000Y-73000000D01*
X172450001Y-73450001D02*
X173000001Y-74000001D01*
X173750000Y-73000000D02*
X173750000Y-66040979D01*
X173750000Y-66040979D02*
X173146967Y-65437946D01*
X173146967Y-65437946D02*
X172722703Y-65437946D01*
X166727988Y-62650801D02*
X166727988Y-64344076D01*
X166727988Y-64344076D02*
X170016957Y-67633045D01*
X164127178Y-60049991D02*
X166727988Y-62650801D01*
X123450009Y-60049991D02*
X164127178Y-60049991D01*
X121000000Y-62500000D02*
X123450009Y-60049991D01*
X170016957Y-67633045D02*
X170316956Y-67933044D01*
X121000000Y-74000000D02*
X122500000Y-75500000D01*
X122500000Y-75500000D02*
X122500000Y-84000000D01*
X122500000Y-84000000D02*
X121999999Y-84500001D01*
X121999999Y-84500001D02*
X121000000Y-85500000D01*
X121000000Y-85500000D02*
X121000000Y-86914213D01*
X121000000Y-86914213D02*
X122325001Y-88239214D01*
X122325001Y-88239214D02*
X122325001Y-95674999D01*
X122325001Y-95674999D02*
X121999999Y-96000001D01*
X121999999Y-96000001D02*
X121000000Y-97000000D01*
X121000000Y-62500000D02*
X121000000Y-63914213D01*
X121000000Y-63914213D02*
X122325001Y-65239214D01*
X122325001Y-65239214D02*
X122325001Y-72674999D01*
X122325001Y-72674999D02*
X121999999Y-73000001D01*
X121999999Y-73000001D02*
X121000000Y-74000000D01*
X169335102Y-68146198D02*
X169635101Y-68446197D01*
X134499998Y-60500002D02*
X163940778Y-60500002D01*
X132500000Y-62500000D02*
X134499998Y-60500002D01*
X163940778Y-60500002D02*
X166277977Y-62837201D01*
X166277977Y-65089073D02*
X169335102Y-68146198D01*
X166277977Y-62837201D02*
X166277977Y-65089073D01*
X132500000Y-85500000D02*
X133825001Y-86825001D01*
X133825001Y-86825001D02*
X133825001Y-95674999D01*
X133825001Y-95674999D02*
X133499999Y-96000001D01*
X133499999Y-96000001D02*
X132500000Y-97000000D01*
X132500000Y-74000000D02*
X134250000Y-75750000D01*
X134250000Y-75750000D02*
X134250000Y-83750000D01*
X134250000Y-83750000D02*
X133499999Y-84500001D01*
X133499999Y-84500001D02*
X132500000Y-85500000D01*
X132500000Y-62500000D02*
X133825001Y-63825001D01*
X133825001Y-63825001D02*
X133825001Y-72674999D01*
X133825001Y-72674999D02*
X133499999Y-73000001D01*
X133499999Y-73000001D02*
X132500000Y-74000000D01*
X170266956Y-71866954D02*
X170566955Y-71566955D01*
X164911013Y-75049989D02*
X167083921Y-75049989D01*
X164636002Y-75325001D02*
X164911013Y-75049989D01*
X162575001Y-75325001D02*
X164636002Y-75325001D01*
X167083921Y-75049989D02*
X170266956Y-71866954D01*
X144000000Y-85500000D02*
X144000000Y-86914213D01*
X144000000Y-86914213D02*
X145325001Y-88239214D01*
X145325001Y-88239214D02*
X145325001Y-95674999D01*
X145325001Y-95674999D02*
X144999999Y-96000001D01*
X144999999Y-96000001D02*
X144000000Y-97000000D01*
X144000000Y-74000000D02*
X144000000Y-75414213D01*
X144000000Y-75414213D02*
X145325001Y-76739214D01*
X145325001Y-76739214D02*
X145325001Y-84174999D01*
X145325001Y-84174999D02*
X144999999Y-84500001D01*
X144999999Y-84500001D02*
X144000000Y-85500000D01*
X144000000Y-62500000D02*
X144000000Y-63914213D01*
X144000000Y-63914213D02*
X145325001Y-65239214D01*
X145325001Y-65239214D02*
X145325001Y-72674999D01*
X145325001Y-72674999D02*
X144999999Y-73000001D01*
X144999999Y-73000001D02*
X144000000Y-74000000D01*
X177500000Y-55250000D02*
X175999862Y-56750138D01*
X175999862Y-56750138D02*
X175999862Y-68267316D01*
X175999862Y-68267316D02*
X175999862Y-68691580D01*
X171700011Y-68786381D02*
X171700011Y-64871618D01*
X169813599Y-70299991D02*
X170186401Y-70299991D01*
X170186401Y-70299991D02*
X171700011Y-68786381D01*
X169613591Y-70499999D02*
X169813599Y-70299991D01*
X164999999Y-70499999D02*
X169613591Y-70499999D01*
X164000000Y-69500000D02*
X164999999Y-70499999D01*
X171700011Y-64871618D02*
X172171650Y-64399979D01*
X172171650Y-64399979D02*
X172471649Y-64099980D01*
X160500000Y-68863589D02*
X160500000Y-89250000D01*
X169033364Y-69071217D02*
X166012136Y-66049989D01*
X171250000Y-68175000D02*
X170353783Y-69071217D01*
X166012136Y-66049989D02*
X163313600Y-66049989D01*
X163313600Y-66049989D02*
X160500000Y-68863589D01*
X151914213Y-92500000D02*
X150500000Y-92500000D01*
X170000000Y-65500000D02*
X171250000Y-66750000D01*
X170353783Y-69071217D02*
X169033364Y-69071217D01*
X160500000Y-89250000D02*
X157250000Y-92500000D01*
X171250000Y-66750000D02*
X171250000Y-68175000D01*
X157250000Y-92500000D02*
X151914213Y-92500000D01*
X164000000Y-74000000D02*
X162000000Y-72000000D01*
X162000000Y-72000000D02*
X162000000Y-68000000D01*
X162000000Y-68000000D02*
X163500000Y-66500000D01*
X169021954Y-69696218D02*
X169227755Y-69696218D01*
X163500000Y-66500000D02*
X165825736Y-66500000D01*
X165825736Y-66500000D02*
X169021954Y-69696218D01*
X169227755Y-69696218D02*
X169652019Y-69696218D01*
X157500000Y-74000000D02*
X158825001Y-75325001D01*
X158825001Y-75325001D02*
X158825001Y-84174999D01*
X158825001Y-84174999D02*
X158499999Y-84500001D01*
X158499999Y-84500001D02*
X157500000Y-85500000D01*
X157500000Y-62500000D02*
X159250000Y-64250000D01*
X159250000Y-72250000D02*
X158499999Y-73000001D01*
X159250000Y-64250000D02*
X159250000Y-72250000D01*
X158499999Y-73000001D02*
X157500000Y-74000000D01*
M02*
