G04 #@! TF.FileFunction,Legend,Top*
%FSLAX46Y46*%
G04 Gerber Fmt 4.6, Leading zero omitted, Abs format (unit mm)*
G04 Created by KiCad (PCBNEW 4.0.0-rc2-stable) date 16/03/2018 16:43:17*
%MOMM*%
G01*
G04 APERTURE LIST*
%ADD10C,0.100000*%
%ADD11C,0.300000*%
%ADD12C,0.200000*%
%ADD13C,0.120000*%
%ADD14C,0.150000*%
G04 APERTURE END LIST*
D10*
D11*
X162349515Y-91078571D02*
X162706658Y-92578571D01*
X162992372Y-91507143D01*
X163278086Y-92578571D01*
X163635229Y-91078571D01*
X164206658Y-92578571D02*
X164206658Y-91578571D01*
X164206658Y-91078571D02*
X164135229Y-91150000D01*
X164206658Y-91221429D01*
X164278086Y-91150000D01*
X164206658Y-91078571D01*
X164206658Y-91221429D01*
X165135230Y-92578571D02*
X164992372Y-92507143D01*
X164920944Y-92364286D01*
X164920944Y-91078571D01*
X165920944Y-92578571D02*
X165778086Y-92507143D01*
X165706658Y-92364286D01*
X165706658Y-91078571D01*
X167563800Y-92507143D02*
X167778086Y-92578571D01*
X168135229Y-92578571D01*
X168278086Y-92507143D01*
X168349515Y-92435714D01*
X168420943Y-92292857D01*
X168420943Y-92150000D01*
X168349515Y-92007143D01*
X168278086Y-91935714D01*
X168135229Y-91864286D01*
X167849515Y-91792857D01*
X167706657Y-91721429D01*
X167635229Y-91650000D01*
X167563800Y-91507143D01*
X167563800Y-91364286D01*
X167635229Y-91221429D01*
X167706657Y-91150000D01*
X167849515Y-91078571D01*
X168206657Y-91078571D01*
X168420943Y-91150000D01*
X169063800Y-92578571D02*
X169063800Y-91078571D01*
X169706657Y-92578571D02*
X169706657Y-91792857D01*
X169635228Y-91650000D01*
X169492371Y-91578571D01*
X169278086Y-91578571D01*
X169135228Y-91650000D01*
X169063800Y-91721429D01*
X171063800Y-92578571D02*
X171063800Y-91792857D01*
X170992371Y-91650000D01*
X170849514Y-91578571D01*
X170563800Y-91578571D01*
X170420943Y-91650000D01*
X171063800Y-92507143D02*
X170920943Y-92578571D01*
X170563800Y-92578571D01*
X170420943Y-92507143D01*
X170349514Y-92364286D01*
X170349514Y-92221429D01*
X170420943Y-92078571D01*
X170563800Y-92007143D01*
X170920943Y-92007143D01*
X171063800Y-91935714D01*
X171635229Y-91578571D02*
X171920943Y-92578571D01*
X172206657Y-91864286D01*
X172492372Y-92578571D01*
X172778086Y-91578571D01*
X159956657Y-93478571D02*
X160313800Y-94978571D01*
X160599514Y-93907143D01*
X160885228Y-94978571D01*
X161242371Y-93478571D01*
X161742371Y-94907143D02*
X161956657Y-94978571D01*
X162313800Y-94978571D01*
X162456657Y-94907143D01*
X162528086Y-94835714D01*
X162599514Y-94692857D01*
X162599514Y-94550000D01*
X162528086Y-94407143D01*
X162456657Y-94335714D01*
X162313800Y-94264286D01*
X162028086Y-94192857D01*
X161885228Y-94121429D01*
X161813800Y-94050000D01*
X161742371Y-93907143D01*
X161742371Y-93764286D01*
X161813800Y-93621429D01*
X161885228Y-93550000D01*
X162028086Y-93478571D01*
X162385228Y-93478571D01*
X162599514Y-93550000D01*
X164313799Y-94550000D02*
X165028085Y-94550000D01*
X164170942Y-94978571D02*
X164670942Y-93478571D01*
X165170942Y-94978571D01*
X166313799Y-93978571D02*
X166313799Y-94978571D01*
X165670942Y-93978571D02*
X165670942Y-94764286D01*
X165742370Y-94907143D01*
X165885228Y-94978571D01*
X166099513Y-94978571D01*
X166242370Y-94907143D01*
X166313799Y-94835714D01*
X167670942Y-94978571D02*
X167670942Y-93478571D01*
X167670942Y-94907143D02*
X167528085Y-94978571D01*
X167242371Y-94978571D01*
X167099513Y-94907143D01*
X167028085Y-94835714D01*
X166956656Y-94692857D01*
X166956656Y-94264286D01*
X167028085Y-94121429D01*
X167099513Y-94050000D01*
X167242371Y-93978571D01*
X167528085Y-93978571D01*
X167670942Y-94050000D01*
X168385228Y-94978571D02*
X168385228Y-93978571D01*
X168385228Y-93478571D02*
X168313799Y-93550000D01*
X168385228Y-93621429D01*
X168456656Y-93550000D01*
X168385228Y-93478571D01*
X168385228Y-93621429D01*
X169313800Y-94978571D02*
X169170942Y-94907143D01*
X169099514Y-94835714D01*
X169028085Y-94692857D01*
X169028085Y-94264286D01*
X169099514Y-94121429D01*
X169170942Y-94050000D01*
X169313800Y-93978571D01*
X169528085Y-93978571D01*
X169670942Y-94050000D01*
X169742371Y-94121429D01*
X169813800Y-94264286D01*
X169813800Y-94692857D01*
X169742371Y-94835714D01*
X169670942Y-94907143D01*
X169528085Y-94978571D01*
X169313800Y-94978571D01*
X172313800Y-94978571D02*
X171599514Y-94978571D01*
X171599514Y-93478571D01*
X172599514Y-93978571D02*
X173170943Y-93978571D01*
X172813800Y-93478571D02*
X172813800Y-94764286D01*
X172885228Y-94907143D01*
X173028086Y-94978571D01*
X173170943Y-94978571D01*
X174313800Y-94978571D02*
X174313800Y-93478571D01*
X174313800Y-94907143D02*
X174170943Y-94978571D01*
X173885229Y-94978571D01*
X173742371Y-94907143D01*
X173670943Y-94835714D01*
X173599514Y-94692857D01*
X173599514Y-94264286D01*
X173670943Y-94121429D01*
X173742371Y-94050000D01*
X173885229Y-93978571D01*
X174170943Y-93978571D01*
X174313800Y-94050000D01*
X175028086Y-94835714D02*
X175099514Y-94907143D01*
X175028086Y-94978571D01*
X174956657Y-94907143D01*
X175028086Y-94835714D01*
X175028086Y-94978571D01*
X156206657Y-96378571D02*
X156492371Y-97378571D01*
X156778085Y-96664286D01*
X157063800Y-97378571D01*
X157349514Y-96378571D01*
X157849514Y-97307143D02*
X157992371Y-97378571D01*
X158278086Y-97378571D01*
X158420943Y-97307143D01*
X158492371Y-97164286D01*
X158492371Y-97092857D01*
X158420943Y-96950000D01*
X158278086Y-96878571D01*
X158063800Y-96878571D01*
X157920943Y-96807143D01*
X157849514Y-96664286D01*
X157849514Y-96592857D01*
X157920943Y-96450000D01*
X158063800Y-96378571D01*
X158278086Y-96378571D01*
X158420943Y-96450000D01*
X160063800Y-96664286D02*
X159992372Y-96592857D01*
X159849515Y-96521429D01*
X159706657Y-96521429D01*
X159563800Y-96592857D01*
X159492372Y-96664286D01*
X159420943Y-96807143D01*
X159420943Y-96950000D01*
X159492372Y-97092857D01*
X159563800Y-97164286D01*
X159706657Y-97235714D01*
X159849515Y-97235714D01*
X159992372Y-97164286D01*
X160063800Y-97092857D01*
X160063800Y-96521429D02*
X160063800Y-97092857D01*
X160135229Y-97164286D01*
X160206657Y-97164286D01*
X160349515Y-97092857D01*
X160420943Y-96950000D01*
X160420943Y-96592857D01*
X160278086Y-96378571D01*
X160063800Y-96235714D01*
X159778086Y-96164286D01*
X159492372Y-96235714D01*
X159278086Y-96378571D01*
X159135229Y-96592857D01*
X159063800Y-96878571D01*
X159135229Y-97164286D01*
X159278086Y-97378571D01*
X159492372Y-97521429D01*
X159778086Y-97592857D01*
X160063800Y-97521429D01*
X160278086Y-97378571D01*
X160849514Y-96378571D02*
X161420943Y-96378571D01*
X161063800Y-95878571D02*
X161063800Y-97164286D01*
X161135228Y-97307143D01*
X161278086Y-97378571D01*
X161420943Y-97378571D01*
X161920943Y-97378571D02*
X161920943Y-96378571D01*
X161920943Y-96664286D02*
X161992371Y-96521429D01*
X162063800Y-96450000D01*
X162206657Y-96378571D01*
X162349514Y-96378571D01*
X163492371Y-96378571D02*
X163492371Y-97378571D01*
X162849514Y-96378571D02*
X162849514Y-97164286D01*
X162920942Y-97307143D01*
X163063800Y-97378571D01*
X163278085Y-97378571D01*
X163420942Y-97307143D01*
X163492371Y-97235714D01*
X164778085Y-97307143D02*
X164635228Y-97378571D01*
X164349514Y-97378571D01*
X164206657Y-97307143D01*
X164135228Y-97164286D01*
X164135228Y-96592857D01*
X164206657Y-96450000D01*
X164349514Y-96378571D01*
X164635228Y-96378571D01*
X164778085Y-96450000D01*
X164849514Y-96592857D01*
X164849514Y-96735714D01*
X164135228Y-96878571D01*
X165492371Y-96378571D02*
X165492371Y-97378571D01*
X165492371Y-96521429D02*
X165563799Y-96450000D01*
X165706657Y-96378571D01*
X165920942Y-96378571D01*
X166063799Y-96450000D01*
X166135228Y-96592857D01*
X166135228Y-97378571D01*
X167063800Y-97378571D02*
X166920942Y-97307143D01*
X166849514Y-97235714D01*
X166778085Y-97092857D01*
X166778085Y-96664286D01*
X166849514Y-96521429D01*
X166920942Y-96450000D01*
X167063800Y-96378571D01*
X167278085Y-96378571D01*
X167420942Y-96450000D01*
X167492371Y-96521429D01*
X167563800Y-96664286D01*
X167563800Y-97092857D01*
X167492371Y-97235714D01*
X167420942Y-97307143D01*
X167278085Y-97378571D01*
X167063800Y-97378571D01*
X168135228Y-97307143D02*
X168278085Y-97378571D01*
X168563800Y-97378571D01*
X168706657Y-97307143D01*
X168778085Y-97164286D01*
X168778085Y-97092857D01*
X168706657Y-96950000D01*
X168563800Y-96878571D01*
X168349514Y-96878571D01*
X168206657Y-96807143D01*
X168135228Y-96664286D01*
X168135228Y-96592857D01*
X168206657Y-96450000D01*
X168349514Y-96378571D01*
X168563800Y-96378571D01*
X168706657Y-96450000D01*
X169278086Y-96378571D02*
X169635229Y-97378571D01*
X169992371Y-96378571D02*
X169635229Y-97378571D01*
X169492371Y-97735714D01*
X169420943Y-97807143D01*
X169278086Y-97878571D01*
X170563800Y-96378571D02*
X170563800Y-97378571D01*
X170563800Y-96521429D02*
X170635228Y-96450000D01*
X170778086Y-96378571D01*
X170992371Y-96378571D01*
X171135228Y-96450000D01*
X171206657Y-96592857D01*
X171206657Y-97378571D01*
X171706657Y-96378571D02*
X172278086Y-96378571D01*
X171920943Y-95878571D02*
X171920943Y-97164286D01*
X171992371Y-97307143D01*
X172135229Y-97378571D01*
X172278086Y-97378571D01*
X172778086Y-97378571D02*
X172778086Y-95878571D01*
X173420943Y-97378571D02*
X173420943Y-96592857D01*
X173349514Y-96450000D01*
X173206657Y-96378571D01*
X172992372Y-96378571D01*
X172849514Y-96450000D01*
X172778086Y-96521429D01*
X174135229Y-97235714D02*
X174206657Y-97307143D01*
X174135229Y-97378571D01*
X174063800Y-97307143D01*
X174135229Y-97235714D01*
X174135229Y-97378571D01*
X175492372Y-97307143D02*
X175349515Y-97378571D01*
X175063801Y-97378571D01*
X174920943Y-97307143D01*
X174849515Y-97235714D01*
X174778086Y-97092857D01*
X174778086Y-96664286D01*
X174849515Y-96521429D01*
X174920943Y-96450000D01*
X175063801Y-96378571D01*
X175349515Y-96378571D01*
X175492372Y-96450000D01*
X176349515Y-97378571D02*
X176206657Y-97307143D01*
X176135229Y-97235714D01*
X176063800Y-97092857D01*
X176063800Y-96664286D01*
X176135229Y-96521429D01*
X176206657Y-96450000D01*
X176349515Y-96378571D01*
X176563800Y-96378571D01*
X176706657Y-96450000D01*
X176778086Y-96521429D01*
X176849515Y-96664286D01*
X176849515Y-97092857D01*
X176778086Y-97235714D01*
X176706657Y-97307143D01*
X176563800Y-97378571D01*
X176349515Y-97378571D01*
X177492372Y-97378571D02*
X177492372Y-96378571D01*
X177492372Y-96521429D02*
X177563800Y-96450000D01*
X177706658Y-96378571D01*
X177920943Y-96378571D01*
X178063800Y-96450000D01*
X178135229Y-96592857D01*
X178135229Y-97378571D01*
X178135229Y-96592857D02*
X178206658Y-96450000D01*
X178349515Y-96378571D01*
X178563800Y-96378571D01*
X178706658Y-96450000D01*
X178778086Y-96592857D01*
X178778086Y-97378571D01*
X162956657Y-98778571D02*
X163242371Y-99778571D01*
X163528085Y-99064286D01*
X163813800Y-99778571D01*
X164099514Y-98778571D01*
X164599514Y-99707143D02*
X164742371Y-99778571D01*
X165028086Y-99778571D01*
X165170943Y-99707143D01*
X165242371Y-99564286D01*
X165242371Y-99492857D01*
X165170943Y-99350000D01*
X165028086Y-99278571D01*
X164813800Y-99278571D01*
X164670943Y-99207143D01*
X164599514Y-99064286D01*
X164599514Y-98992857D01*
X164670943Y-98850000D01*
X164813800Y-98778571D01*
X165028086Y-98778571D01*
X165170943Y-98850000D01*
X166528086Y-99778571D02*
X166528086Y-98992857D01*
X166456657Y-98850000D01*
X166313800Y-98778571D01*
X166028086Y-98778571D01*
X165885229Y-98850000D01*
X166528086Y-99707143D02*
X166385229Y-99778571D01*
X166028086Y-99778571D01*
X165885229Y-99707143D01*
X165813800Y-99564286D01*
X165813800Y-99421429D01*
X165885229Y-99278571D01*
X166028086Y-99207143D01*
X166385229Y-99207143D01*
X166528086Y-99135714D01*
X167885229Y-98778571D02*
X167885229Y-99778571D01*
X167242372Y-98778571D02*
X167242372Y-99564286D01*
X167313800Y-99707143D01*
X167456658Y-99778571D01*
X167670943Y-99778571D01*
X167813800Y-99707143D01*
X167885229Y-99635714D01*
X169242372Y-99778571D02*
X169242372Y-98278571D01*
X169242372Y-99707143D02*
X169099515Y-99778571D01*
X168813801Y-99778571D01*
X168670943Y-99707143D01*
X168599515Y-99635714D01*
X168528086Y-99492857D01*
X168528086Y-99064286D01*
X168599515Y-98921429D01*
X168670943Y-98850000D01*
X168813801Y-98778571D01*
X169099515Y-98778571D01*
X169242372Y-98850000D01*
X169956658Y-99635714D02*
X170028086Y-99707143D01*
X169956658Y-99778571D01*
X169885229Y-99707143D01*
X169956658Y-99635714D01*
X169956658Y-99778571D01*
X170670944Y-99778571D02*
X170670944Y-98778571D01*
X170670944Y-98278571D02*
X170599515Y-98350000D01*
X170670944Y-98421429D01*
X170742372Y-98350000D01*
X170670944Y-98278571D01*
X170670944Y-98421429D01*
X171599516Y-99778571D02*
X171456658Y-99707143D01*
X171385230Y-99635714D01*
X171313801Y-99492857D01*
X171313801Y-99064286D01*
X171385230Y-98921429D01*
X171456658Y-98850000D01*
X171599516Y-98778571D01*
X171813801Y-98778571D01*
X171956658Y-98850000D01*
X172028087Y-98921429D01*
X172099516Y-99064286D01*
X172099516Y-99492857D01*
X172028087Y-99635714D01*
X171956658Y-99707143D01*
X171813801Y-99778571D01*
X171599516Y-99778571D01*
X177714287Y-52178571D02*
X177000001Y-52178571D01*
X176928572Y-52892857D01*
X177000001Y-52821429D01*
X177142858Y-52750000D01*
X177500001Y-52750000D01*
X177642858Y-52821429D01*
X177714287Y-52892857D01*
X177785715Y-53035714D01*
X177785715Y-53392857D01*
X177714287Y-53535714D01*
X177642858Y-53607143D01*
X177500001Y-53678571D01*
X177142858Y-53678571D01*
X177000001Y-53607143D01*
X176928572Y-53535714D01*
X178214286Y-52178571D02*
X178714286Y-53678571D01*
X179214286Y-52178571D01*
X160428572Y-78107143D02*
X161571429Y-78107143D01*
X160178572Y-66607143D02*
X161321429Y-66607143D01*
X160750000Y-67178571D02*
X160750000Y-66035714D01*
X158750000Y-54892857D02*
X159250000Y-54892857D01*
X159464286Y-55678571D02*
X158750000Y-55678571D01*
X158750000Y-54178571D01*
X159464286Y-54178571D01*
X160107143Y-55678571D02*
X160107143Y-54178571D01*
X160464286Y-54178571D01*
X160678571Y-54250000D01*
X160821429Y-54392857D01*
X160892857Y-54535714D01*
X160964286Y-54821429D01*
X160964286Y-55035714D01*
X160892857Y-55321429D01*
X160821429Y-55464286D01*
X160678571Y-55607143D01*
X160464286Y-55678571D01*
X160107143Y-55678571D01*
X161607143Y-55678571D02*
X161607143Y-54178571D01*
X162107143Y-54178571D02*
X162964286Y-54178571D01*
X162535715Y-55678571D02*
X162535715Y-54178571D01*
D12*
X142000000Y-53000000D02*
X152500000Y-53000000D01*
D11*
X146035714Y-55678571D02*
X146035714Y-54178571D01*
X146035714Y-54892857D02*
X146892857Y-54892857D01*
X146892857Y-55678571D02*
X146892857Y-54178571D01*
X147607143Y-55678571D02*
X147607143Y-54178571D01*
X147607143Y-54892857D02*
X148464286Y-54892857D01*
X148464286Y-55678571D02*
X148464286Y-54178571D01*
X143678572Y-67535714D02*
X143607143Y-67607143D01*
X143392857Y-67678571D01*
X143250000Y-67678571D01*
X143035715Y-67607143D01*
X142892857Y-67464286D01*
X142821429Y-67321429D01*
X142750000Y-67035714D01*
X142750000Y-66821429D01*
X142821429Y-66535714D01*
X142892857Y-66392857D01*
X143035715Y-66250000D01*
X143250000Y-66178571D01*
X143392857Y-66178571D01*
X143607143Y-66250000D01*
X143678572Y-66321429D01*
X145464286Y-67678571D02*
X145464286Y-66178571D01*
X145821429Y-66178571D01*
X146035714Y-66250000D01*
X146178572Y-66392857D01*
X146250000Y-66535714D01*
X146321429Y-66821429D01*
X146321429Y-67035714D01*
X146250000Y-67321429D01*
X146178572Y-67464286D01*
X146035714Y-67607143D01*
X145821429Y-67678571D01*
X145464286Y-67678571D01*
X146964286Y-66892857D02*
X147464286Y-66892857D01*
X147678572Y-67678571D02*
X146964286Y-67678571D01*
X146964286Y-66178571D01*
X147678572Y-66178571D01*
X149178572Y-67535714D02*
X149107143Y-67607143D01*
X148892857Y-67678571D01*
X148750000Y-67678571D01*
X148535715Y-67607143D01*
X148392857Y-67464286D01*
X148321429Y-67321429D01*
X148250000Y-67035714D01*
X148250000Y-66821429D01*
X148321429Y-66535714D01*
X148392857Y-66392857D01*
X148535715Y-66250000D01*
X148750000Y-66178571D01*
X148892857Y-66178571D01*
X149107143Y-66250000D01*
X149178572Y-66321429D01*
X149750000Y-67250000D02*
X150464286Y-67250000D01*
X149607143Y-67678571D02*
X150107143Y-66178571D01*
X150607143Y-67678571D01*
X151392857Y-66964286D02*
X151392857Y-67678571D01*
X150892857Y-66178571D02*
X151392857Y-66964286D01*
X151892857Y-66178571D01*
X143071429Y-77678571D02*
X143357143Y-77678571D01*
X143500001Y-77750000D01*
X143642858Y-77892857D01*
X143714286Y-78178571D01*
X143714286Y-78678571D01*
X143642858Y-78964286D01*
X143500001Y-79107143D01*
X143357143Y-79178571D01*
X143071429Y-79178571D01*
X142928572Y-79107143D01*
X142785715Y-78964286D01*
X142714286Y-78678571D01*
X142714286Y-78178571D01*
X142785715Y-77892857D01*
X142928572Y-77750000D01*
X143071429Y-77678571D01*
X145500001Y-79178571D02*
X145500001Y-77678571D01*
X145857144Y-77678571D01*
X146071429Y-77750000D01*
X146214287Y-77892857D01*
X146285715Y-78035714D01*
X146357144Y-78321429D01*
X146357144Y-78535714D01*
X146285715Y-78821429D01*
X146214287Y-78964286D01*
X146071429Y-79107143D01*
X145857144Y-79178571D01*
X145500001Y-79178571D01*
X147000001Y-78392857D02*
X147500001Y-78392857D01*
X147714287Y-79178571D02*
X147000001Y-79178571D01*
X147000001Y-77678571D01*
X147714287Y-77678571D01*
X149214287Y-79035714D02*
X149142858Y-79107143D01*
X148928572Y-79178571D01*
X148785715Y-79178571D01*
X148571430Y-79107143D01*
X148428572Y-78964286D01*
X148357144Y-78821429D01*
X148285715Y-78535714D01*
X148285715Y-78321429D01*
X148357144Y-78035714D01*
X148428572Y-77892857D01*
X148571430Y-77750000D01*
X148785715Y-77678571D01*
X148928572Y-77678571D01*
X149142858Y-77750000D01*
X149214287Y-77821429D01*
X149785715Y-78750000D02*
X150500001Y-78750000D01*
X149642858Y-79178571D02*
X150142858Y-77678571D01*
X150642858Y-79178571D01*
X151428572Y-78464286D02*
X151428572Y-79178571D01*
X150928572Y-77678571D02*
X151428572Y-78464286D01*
X151928572Y-77678571D01*
D12*
X142000000Y-88500000D02*
X142000000Y-53000000D01*
X152500000Y-53000000D02*
X152500000Y-88500000D01*
X152500000Y-88500000D02*
X142000000Y-88500000D01*
X130500000Y-53000000D02*
X141000000Y-53000000D01*
D11*
X133678571Y-54178571D02*
X134535714Y-54178571D01*
X134107143Y-55678571D02*
X134107143Y-54178571D01*
X135321428Y-54178571D02*
X135607142Y-54178571D01*
X135750000Y-54250000D01*
X135892857Y-54392857D01*
X135964285Y-54678571D01*
X135964285Y-55178571D01*
X135892857Y-55464286D01*
X135750000Y-55607143D01*
X135607142Y-55678571D01*
X135321428Y-55678571D01*
X135178571Y-55607143D01*
X135035714Y-55464286D01*
X134964285Y-55178571D01*
X134964285Y-54678571D01*
X135035714Y-54392857D01*
X135178571Y-54250000D01*
X135321428Y-54178571D01*
X136607143Y-55678571D02*
X136607143Y-54178571D01*
X137107143Y-55250000D01*
X137607143Y-54178571D01*
X137607143Y-55678571D01*
X132428572Y-67678571D02*
X131714286Y-67678571D01*
X131714286Y-66178571D01*
X134071429Y-67678571D02*
X134071429Y-66178571D01*
X134642857Y-66178571D01*
X134785715Y-66250000D01*
X134857143Y-66321429D01*
X134928572Y-66464286D01*
X134928572Y-66678571D01*
X134857143Y-66821429D01*
X134785715Y-66892857D01*
X134642857Y-66964286D01*
X134071429Y-66964286D01*
X135571429Y-67678571D02*
X135571429Y-66178571D01*
X136071429Y-66178571D02*
X136928572Y-66178571D01*
X136500001Y-67678571D02*
X136500001Y-66178571D01*
X138285715Y-67535714D02*
X138214286Y-67607143D01*
X138000000Y-67678571D01*
X137857143Y-67678571D01*
X137642858Y-67607143D01*
X137500000Y-67464286D01*
X137428572Y-67321429D01*
X137357143Y-67035714D01*
X137357143Y-66821429D01*
X137428572Y-66535714D01*
X137500000Y-66392857D01*
X137642858Y-66250000D01*
X137857143Y-66178571D01*
X138000000Y-66178571D01*
X138214286Y-66250000D01*
X138285715Y-66321429D01*
X138928572Y-67678571D02*
X138928572Y-66178571D01*
X138928572Y-66892857D02*
X139785715Y-66892857D01*
X139785715Y-67678571D02*
X139785715Y-66178571D01*
X131535714Y-79178571D02*
X131535714Y-77678571D01*
X131535714Y-78392857D02*
X132392857Y-78392857D01*
X132392857Y-79178571D02*
X132392857Y-77678571D01*
X134250000Y-79178571D02*
X134250000Y-77678571D01*
X134821428Y-77678571D01*
X134964286Y-77750000D01*
X135035714Y-77821429D01*
X135107143Y-77964286D01*
X135107143Y-78178571D01*
X135035714Y-78321429D01*
X134964286Y-78392857D01*
X134821428Y-78464286D01*
X134250000Y-78464286D01*
X135750000Y-79178571D02*
X135750000Y-77678571D01*
X136250000Y-77678571D02*
X137107143Y-77678571D01*
X136678572Y-79178571D02*
X136678572Y-77678571D01*
X138464286Y-79035714D02*
X138392857Y-79107143D01*
X138178571Y-79178571D01*
X138035714Y-79178571D01*
X137821429Y-79107143D01*
X137678571Y-78964286D01*
X137607143Y-78821429D01*
X137535714Y-78535714D01*
X137535714Y-78321429D01*
X137607143Y-78035714D01*
X137678571Y-77892857D01*
X137821429Y-77750000D01*
X138035714Y-77678571D01*
X138178571Y-77678571D01*
X138392857Y-77750000D01*
X138464286Y-77821429D01*
X139107143Y-79178571D02*
X139107143Y-77678571D01*
X139107143Y-78392857D02*
X139964286Y-78392857D01*
X139964286Y-79178571D02*
X139964286Y-77678571D01*
D12*
X130500000Y-100000000D02*
X130500000Y-53000000D01*
X141000000Y-53000000D02*
X141000000Y-100000000D01*
X141000000Y-100000000D02*
X130500000Y-100000000D01*
D11*
X132642858Y-90678571D02*
X132642858Y-89178571D01*
X133000001Y-89178571D01*
X133214286Y-89250000D01*
X133357144Y-89392857D01*
X133428572Y-89535714D01*
X133500001Y-89821429D01*
X133500001Y-90035714D01*
X133428572Y-90321429D01*
X133357144Y-90464286D01*
X133214286Y-90607143D01*
X133000001Y-90678571D01*
X132642858Y-90678571D01*
X134142858Y-89892857D02*
X134642858Y-89892857D01*
X134857144Y-90678571D02*
X134142858Y-90678571D01*
X134142858Y-89178571D01*
X134857144Y-89178571D01*
X136357144Y-90535714D02*
X136285715Y-90607143D01*
X136071429Y-90678571D01*
X135928572Y-90678571D01*
X135714287Y-90607143D01*
X135571429Y-90464286D01*
X135500001Y-90321429D01*
X135428572Y-90035714D01*
X135428572Y-89821429D01*
X135500001Y-89535714D01*
X135571429Y-89392857D01*
X135714287Y-89250000D01*
X135928572Y-89178571D01*
X136071429Y-89178571D01*
X136285715Y-89250000D01*
X136357144Y-89321429D01*
X136928572Y-90250000D02*
X137642858Y-90250000D01*
X136785715Y-90678571D02*
X137285715Y-89178571D01*
X137785715Y-90678571D01*
X138571429Y-89964286D02*
X138571429Y-90678571D01*
X138071429Y-89178571D02*
X138571429Y-89964286D01*
X139071429Y-89178571D01*
D12*
X119000000Y-53000000D02*
X129500000Y-53000000D01*
D11*
X122714286Y-55535714D02*
X122642857Y-55607143D01*
X122428571Y-55678571D01*
X122285714Y-55678571D01*
X122071429Y-55607143D01*
X121928571Y-55464286D01*
X121857143Y-55321429D01*
X121785714Y-55035714D01*
X121785714Y-54821429D01*
X121857143Y-54535714D01*
X121928571Y-54392857D01*
X122071429Y-54250000D01*
X122285714Y-54178571D01*
X122428571Y-54178571D01*
X122642857Y-54250000D01*
X122714286Y-54321429D01*
X124071429Y-55678571D02*
X123357143Y-55678571D01*
X123357143Y-54178571D01*
X124500000Y-55250000D02*
X125214286Y-55250000D01*
X124357143Y-55678571D02*
X124857143Y-54178571D01*
X125357143Y-55678571D01*
X125857143Y-55678571D02*
X125857143Y-54178571D01*
X126428571Y-54178571D01*
X126571429Y-54250000D01*
X126642857Y-54321429D01*
X126714286Y-54464286D01*
X126714286Y-54678571D01*
X126642857Y-54821429D01*
X126571429Y-54892857D01*
X126428571Y-54964286D01*
X125857143Y-54964286D01*
X121142858Y-67678571D02*
X121142858Y-66178571D01*
X121500001Y-66178571D01*
X121714286Y-66250000D01*
X121857144Y-66392857D01*
X121928572Y-66535714D01*
X122000001Y-66821429D01*
X122000001Y-67035714D01*
X121928572Y-67321429D01*
X121857144Y-67464286D01*
X121714286Y-67607143D01*
X121500001Y-67678571D01*
X121142858Y-67678571D01*
X122642858Y-66892857D02*
X123142858Y-66892857D01*
X123357144Y-67678571D02*
X122642858Y-67678571D01*
X122642858Y-66178571D01*
X123357144Y-66178571D01*
X124857144Y-67535714D02*
X124785715Y-67607143D01*
X124571429Y-67678571D01*
X124428572Y-67678571D01*
X124214287Y-67607143D01*
X124071429Y-67464286D01*
X124000001Y-67321429D01*
X123928572Y-67035714D01*
X123928572Y-66821429D01*
X124000001Y-66535714D01*
X124071429Y-66392857D01*
X124214287Y-66250000D01*
X124428572Y-66178571D01*
X124571429Y-66178571D01*
X124785715Y-66250000D01*
X124857144Y-66321429D01*
X125428572Y-67250000D02*
X126142858Y-67250000D01*
X125285715Y-67678571D02*
X125785715Y-66178571D01*
X126285715Y-67678571D01*
X127071429Y-66964286D02*
X127071429Y-67678571D01*
X126571429Y-66178571D02*
X127071429Y-66964286D01*
X127571429Y-66178571D01*
D12*
X119000000Y-77000000D02*
X119000000Y-53000000D01*
X129500000Y-53000000D02*
X129500000Y-77000000D01*
X129500000Y-77000000D02*
X119000000Y-77000000D01*
D11*
X121071428Y-90607143D02*
X121285714Y-90678571D01*
X121642857Y-90678571D01*
X121785714Y-90607143D01*
X121857143Y-90535714D01*
X121928571Y-90392857D01*
X121928571Y-90250000D01*
X121857143Y-90107143D01*
X121785714Y-90035714D01*
X121642857Y-89964286D01*
X121357143Y-89892857D01*
X121214285Y-89821429D01*
X121142857Y-89750000D01*
X121071428Y-89607143D01*
X121071428Y-89464286D01*
X121142857Y-89321429D01*
X121214285Y-89250000D01*
X121357143Y-89178571D01*
X121714285Y-89178571D01*
X121928571Y-89250000D01*
X122428571Y-89178571D02*
X122785714Y-90678571D01*
X123071428Y-89607143D01*
X123357142Y-90678571D01*
X123714285Y-89178571D01*
X124285714Y-90678571D02*
X124285714Y-89178571D01*
X125000000Y-90678571D02*
X125000000Y-89178571D01*
X125857143Y-90678571D01*
X125857143Y-89178571D01*
X127357143Y-89250000D02*
X127214286Y-89178571D01*
X127000000Y-89178571D01*
X126785715Y-89250000D01*
X126642857Y-89392857D01*
X126571429Y-89535714D01*
X126500000Y-89821429D01*
X126500000Y-90035714D01*
X126571429Y-90321429D01*
X126642857Y-90464286D01*
X126785715Y-90607143D01*
X127000000Y-90678571D01*
X127142857Y-90678571D01*
X127357143Y-90607143D01*
X127428572Y-90535714D01*
X127428572Y-90035714D01*
X127142857Y-90035714D01*
X109250000Y-89178571D02*
X110107143Y-89178571D01*
X109678572Y-90678571D02*
X109678572Y-89178571D01*
X110607143Y-89892857D02*
X111107143Y-89892857D01*
X111321429Y-90678571D02*
X110607143Y-90678571D01*
X110607143Y-89178571D01*
X111321429Y-89178571D01*
X111964286Y-90678571D02*
X111964286Y-89178571D01*
X112464286Y-90250000D01*
X112964286Y-89178571D01*
X112964286Y-90678571D01*
X113678572Y-90678571D02*
X113678572Y-89178571D01*
X114250000Y-89178571D01*
X114392858Y-89250000D01*
X114464286Y-89321429D01*
X114535715Y-89464286D01*
X114535715Y-89678571D01*
X114464286Y-89821429D01*
X114392858Y-89892857D01*
X114250000Y-89964286D01*
X113678572Y-89964286D01*
X115464286Y-89178571D02*
X115750000Y-89178571D01*
X115892858Y-89250000D01*
X116035715Y-89392857D01*
X116107143Y-89678571D01*
X116107143Y-90178571D01*
X116035715Y-90464286D01*
X115892858Y-90607143D01*
X115750000Y-90678571D01*
X115464286Y-90678571D01*
X115321429Y-90607143D01*
X115178572Y-90464286D01*
X115107143Y-90178571D01*
X115107143Y-89678571D01*
X115178572Y-89392857D01*
X115321429Y-89250000D01*
X115464286Y-89178571D01*
X109642858Y-79178571D02*
X109642858Y-77678571D01*
X110000001Y-77678571D01*
X110214286Y-77750000D01*
X110357144Y-77892857D01*
X110428572Y-78035714D01*
X110500001Y-78321429D01*
X110500001Y-78535714D01*
X110428572Y-78821429D01*
X110357144Y-78964286D01*
X110214286Y-79107143D01*
X110000001Y-79178571D01*
X109642858Y-79178571D01*
X111142858Y-78392857D02*
X111642858Y-78392857D01*
X111857144Y-79178571D02*
X111142858Y-79178571D01*
X111142858Y-77678571D01*
X111857144Y-77678571D01*
X113357144Y-79035714D02*
X113285715Y-79107143D01*
X113071429Y-79178571D01*
X112928572Y-79178571D01*
X112714287Y-79107143D01*
X112571429Y-78964286D01*
X112500001Y-78821429D01*
X112428572Y-78535714D01*
X112428572Y-78321429D01*
X112500001Y-78035714D01*
X112571429Y-77892857D01*
X112714287Y-77750000D01*
X112928572Y-77678571D01*
X113071429Y-77678571D01*
X113285715Y-77750000D01*
X113357144Y-77821429D01*
X113928572Y-78750000D02*
X114642858Y-78750000D01*
X113785715Y-79178571D02*
X114285715Y-77678571D01*
X114785715Y-79178571D01*
X115571429Y-78464286D02*
X115571429Y-79178571D01*
X115071429Y-77678571D02*
X115571429Y-78464286D01*
X116071429Y-77678571D01*
X109892857Y-67678571D02*
X109892857Y-66178571D01*
X110464285Y-66178571D01*
X110607143Y-66250000D01*
X110678571Y-66321429D01*
X110750000Y-66464286D01*
X110750000Y-66678571D01*
X110678571Y-66821429D01*
X110607143Y-66892857D01*
X110464285Y-66964286D01*
X109892857Y-66964286D01*
X111392857Y-67678571D02*
X111392857Y-66178571D01*
X111892857Y-66178571D02*
X112750000Y-66178571D01*
X112321429Y-67678571D02*
X112321429Y-66178571D01*
X114107143Y-67535714D02*
X114035714Y-67607143D01*
X113821428Y-67678571D01*
X113678571Y-67678571D01*
X113464286Y-67607143D01*
X113321428Y-67464286D01*
X113250000Y-67321429D01*
X113178571Y-67035714D01*
X113178571Y-66821429D01*
X113250000Y-66535714D01*
X113321428Y-66392857D01*
X113464286Y-66250000D01*
X113678571Y-66178571D01*
X113821428Y-66178571D01*
X114035714Y-66250000D01*
X114107143Y-66321429D01*
X114750000Y-67678571D02*
X114750000Y-66178571D01*
X114750000Y-66892857D02*
X115607143Y-66892857D01*
X115607143Y-67678571D02*
X115607143Y-66178571D01*
X110500000Y-55678571D02*
X110500000Y-54178571D01*
X111357143Y-55678571D02*
X110714286Y-54821429D01*
X111357143Y-54178571D02*
X110500000Y-55035714D01*
X112000000Y-55678571D02*
X112000000Y-54178571D01*
X113571429Y-55535714D02*
X113500000Y-55607143D01*
X113285714Y-55678571D01*
X113142857Y-55678571D01*
X112928572Y-55607143D01*
X112785714Y-55464286D01*
X112714286Y-55321429D01*
X112642857Y-55035714D01*
X112642857Y-54821429D01*
X112714286Y-54535714D01*
X112785714Y-54392857D01*
X112928572Y-54250000D01*
X113142857Y-54178571D01*
X113285714Y-54178571D01*
X113500000Y-54250000D01*
X113571429Y-54321429D01*
X114214286Y-55678571D02*
X114214286Y-54178571D01*
X115071429Y-55678571D02*
X114428572Y-54821429D01*
X115071429Y-54178571D02*
X114214286Y-55035714D01*
D12*
X107500000Y-88500000D02*
X107500000Y-53000000D01*
X118000000Y-88500000D02*
X107500000Y-88500000D01*
X118000000Y-53000000D02*
X118000000Y-88500000D01*
X107500000Y-53000000D02*
X118000000Y-53000000D01*
D13*
X171780000Y-59500000D02*
X171780000Y-60000000D01*
X172720000Y-60000000D02*
X172720000Y-59500000D01*
X181750000Y-54670616D02*
X181250000Y-54670616D01*
X181250000Y-55610616D02*
X181750000Y-55610616D01*
X176530000Y-57000000D02*
X176530000Y-57500000D01*
X177470000Y-57500000D02*
X177470000Y-57000000D01*
X176470000Y-67250000D02*
X176470000Y-66750000D01*
X175530000Y-66750000D02*
X175530000Y-67250000D01*
X177450000Y-73800000D02*
X179630000Y-73800000D01*
X184050000Y-73800000D02*
X181870000Y-73800000D01*
X178210000Y-67200000D02*
X179630000Y-67200000D01*
X183290000Y-67200000D02*
X181870000Y-67200000D01*
X177450000Y-73800000D02*
X177450000Y-67960000D01*
X177450000Y-67960000D02*
X178210000Y-67200000D01*
X183290000Y-67200000D02*
X184050000Y-67960000D01*
X184050000Y-67960000D02*
X184050000Y-73800000D01*
X114050000Y-65500000D02*
X114050000Y-64500000D01*
X114050000Y-64500000D02*
X111950000Y-64500000D01*
X114050000Y-65500000D02*
X111950000Y-65500000D01*
X114100000Y-77000000D02*
X114100000Y-76000000D01*
X114100000Y-76000000D02*
X112000000Y-76000000D01*
X114100000Y-77000000D02*
X112000000Y-77000000D01*
X114100000Y-88500000D02*
X114100000Y-87500000D01*
X114100000Y-87500000D02*
X112000000Y-87500000D01*
X114100000Y-88500000D02*
X112000000Y-88500000D01*
X114100000Y-100000000D02*
X114100000Y-99000000D01*
X114100000Y-99000000D02*
X112000000Y-99000000D01*
X114100000Y-100000000D02*
X112000000Y-100000000D01*
X125550000Y-65500000D02*
X125550000Y-64500000D01*
X125550000Y-64500000D02*
X123450000Y-64500000D01*
X125550000Y-65500000D02*
X123450000Y-65500000D01*
X125600000Y-77000000D02*
X125600000Y-76000000D01*
X125600000Y-76000000D02*
X123500000Y-76000000D01*
X125600000Y-77000000D02*
X123500000Y-77000000D01*
X125600000Y-88500000D02*
X125600000Y-87500000D01*
X125600000Y-87500000D02*
X123500000Y-87500000D01*
X125600000Y-88500000D02*
X123500000Y-88500000D01*
X125600000Y-100000000D02*
X125600000Y-99000000D01*
X125600000Y-99000000D02*
X123500000Y-99000000D01*
X125600000Y-100000000D02*
X123500000Y-100000000D01*
X137050000Y-65500000D02*
X137050000Y-64500000D01*
X137050000Y-64500000D02*
X134950000Y-64500000D01*
X137050000Y-65500000D02*
X134950000Y-65500000D01*
X137100000Y-77000000D02*
X137100000Y-76000000D01*
X137100000Y-76000000D02*
X135000000Y-76000000D01*
X137100000Y-77000000D02*
X135000000Y-77000000D01*
X137100000Y-88500000D02*
X137100000Y-87500000D01*
X137100000Y-87500000D02*
X135000000Y-87500000D01*
X137100000Y-88500000D02*
X135000000Y-88500000D01*
X137100000Y-100000000D02*
X137100000Y-99000000D01*
X137100000Y-99000000D02*
X135000000Y-99000000D01*
X137100000Y-100000000D02*
X135000000Y-100000000D01*
X148550000Y-65500000D02*
X148550000Y-64500000D01*
X148550000Y-64500000D02*
X146450000Y-64500000D01*
X148550000Y-65500000D02*
X146450000Y-65500000D01*
X148600000Y-77000000D02*
X148600000Y-76000000D01*
X148600000Y-76000000D02*
X146500000Y-76000000D01*
X148600000Y-77000000D02*
X146500000Y-77000000D01*
X148600000Y-88500000D02*
X148600000Y-87500000D01*
X148600000Y-87500000D02*
X146500000Y-87500000D01*
X148600000Y-88500000D02*
X146500000Y-88500000D01*
X148600000Y-100000000D02*
X148600000Y-99000000D01*
X148600000Y-99000000D02*
X146500000Y-99000000D01*
X148600000Y-100000000D02*
X146500000Y-100000000D01*
D14*
X179928000Y-80222000D02*
X179928000Y-78190000D01*
X179928000Y-78190000D02*
X183484000Y-78190000D01*
X183484000Y-78190000D02*
X183484000Y-85810000D01*
X183484000Y-85810000D02*
X179928000Y-85810000D01*
X179928000Y-85810000D02*
X179928000Y-83778000D01*
X184500000Y-76920000D02*
X184500000Y-75904000D01*
X184500000Y-88096000D02*
X184500000Y-87080000D01*
X186532000Y-79460000D02*
X185008000Y-79460000D01*
X185008000Y-84540000D02*
X186532000Y-84540000D01*
X185770000Y-79460000D02*
X185770000Y-84540000D01*
X184500000Y-76920000D02*
X184754000Y-76920000D01*
X184754000Y-76920000D02*
X185008000Y-76920000D01*
X185008000Y-76920000D02*
X185008000Y-87080000D01*
X185008000Y-87080000D02*
X184500000Y-87080000D01*
X186532000Y-79460000D02*
X186532000Y-84540000D01*
X172308000Y-75904000D02*
X184500000Y-75904000D01*
X184500000Y-88096000D02*
X172308000Y-88096000D01*
X172308000Y-88096000D02*
X172308000Y-75904000D01*
D13*
X172690000Y-71940000D02*
X172690000Y-74060000D01*
X174750000Y-71940000D02*
X172690000Y-71940000D01*
X174750000Y-74060000D02*
X172690000Y-74060000D01*
X174750000Y-71940000D02*
X174750000Y-74060000D01*
X175750000Y-71940000D02*
X176810000Y-71940000D01*
X176810000Y-71940000D02*
X176810000Y-73000000D01*
D14*
X175275000Y-54600000D02*
X175275000Y-53200000D01*
X175275000Y-50800000D02*
X175275000Y-50650000D01*
X175275000Y-50650000D02*
X174975000Y-50650000D01*
X174975000Y-50650000D02*
X174975000Y-50200000D01*
X167275000Y-50200000D02*
X167275000Y-50650000D01*
X167275000Y-50650000D02*
X166975000Y-50650000D01*
X166975000Y-50650000D02*
X166975000Y-50800000D01*
X166975000Y-53200000D02*
X166975000Y-54600000D01*
X172200000Y-56775000D02*
X172925000Y-56775000D01*
X172925000Y-56775000D02*
X172925000Y-56350000D01*
X172925000Y-56350000D02*
X173925000Y-56350000D01*
X169325000Y-56350000D02*
X168325000Y-56350000D01*
D13*
X167030000Y-66750000D02*
X167030000Y-66250000D01*
X165970000Y-66250000D02*
X165970000Y-66750000D01*
X167030000Y-64750000D02*
X167030000Y-64250000D01*
X165970000Y-64250000D02*
X165970000Y-64750000D01*
X169720000Y-72750000D02*
X169720000Y-73250000D01*
X170780000Y-73250000D02*
X170780000Y-72750000D01*
X175470000Y-64252800D02*
X175470000Y-64752800D01*
X176530000Y-64752800D02*
X176530000Y-64252800D01*
X173405200Y-62271000D02*
X172905200Y-62271000D01*
X172905200Y-63331000D02*
X173405200Y-63331000D01*
X179250000Y-55670616D02*
X179750000Y-55670616D01*
X179750000Y-54610616D02*
X179250000Y-54610616D01*
X110500000Y-63500000D02*
X115000000Y-63500000D01*
X109250000Y-59500000D02*
X109250000Y-61000000D01*
X115000000Y-57000000D02*
X110500000Y-57000000D01*
X116250000Y-61000000D02*
X116250000Y-59500000D01*
X110500000Y-75000000D02*
X115000000Y-75000000D01*
X109250000Y-71000000D02*
X109250000Y-72500000D01*
X115000000Y-68500000D02*
X110500000Y-68500000D01*
X116250000Y-72500000D02*
X116250000Y-71000000D01*
X110500000Y-86500000D02*
X115000000Y-86500000D01*
X109250000Y-82500000D02*
X109250000Y-84000000D01*
X115000000Y-80000000D02*
X110500000Y-80000000D01*
X116250000Y-84000000D02*
X116250000Y-82500000D01*
X110500000Y-98000000D02*
X115000000Y-98000000D01*
X109250000Y-94000000D02*
X109250000Y-95500000D01*
X115000000Y-91500000D02*
X110500000Y-91500000D01*
X116250000Y-95500000D02*
X116250000Y-94000000D01*
X122000000Y-63500000D02*
X126500000Y-63500000D01*
X120750000Y-59500000D02*
X120750000Y-61000000D01*
X126500000Y-57000000D02*
X122000000Y-57000000D01*
X127750000Y-61000000D02*
X127750000Y-59500000D01*
X122000000Y-75000000D02*
X126500000Y-75000000D01*
X120750000Y-71000000D02*
X120750000Y-72500000D01*
X126500000Y-68500000D02*
X122000000Y-68500000D01*
X127750000Y-72500000D02*
X127750000Y-71000000D01*
X122000000Y-86500000D02*
X126500000Y-86500000D01*
X120750000Y-82500000D02*
X120750000Y-84000000D01*
X126500000Y-80000000D02*
X122000000Y-80000000D01*
X127750000Y-84000000D02*
X127750000Y-82500000D01*
X122000000Y-98000000D02*
X126500000Y-98000000D01*
X120750000Y-94000000D02*
X120750000Y-95500000D01*
X126500000Y-91500000D02*
X122000000Y-91500000D01*
X127750000Y-95500000D02*
X127750000Y-94000000D01*
X133500000Y-63500000D02*
X138000000Y-63500000D01*
X132250000Y-59500000D02*
X132250000Y-61000000D01*
X138000000Y-57000000D02*
X133500000Y-57000000D01*
X139250000Y-61000000D02*
X139250000Y-59500000D01*
X133500000Y-75000000D02*
X138000000Y-75000000D01*
X132250000Y-71000000D02*
X132250000Y-72500000D01*
X138000000Y-68500000D02*
X133500000Y-68500000D01*
X139250000Y-72500000D02*
X139250000Y-71000000D01*
X133500000Y-86500000D02*
X138000000Y-86500000D01*
X132250000Y-82500000D02*
X132250000Y-84000000D01*
X138000000Y-80000000D02*
X133500000Y-80000000D01*
X139250000Y-84000000D02*
X139250000Y-82500000D01*
X133500000Y-98000000D02*
X138000000Y-98000000D01*
X132250000Y-94000000D02*
X132250000Y-95500000D01*
X138000000Y-91500000D02*
X133500000Y-91500000D01*
X139250000Y-95500000D02*
X139250000Y-94000000D01*
X145000000Y-63500000D02*
X149500000Y-63500000D01*
X143750000Y-59500000D02*
X143750000Y-61000000D01*
X149500000Y-57000000D02*
X145000000Y-57000000D01*
X150750000Y-61000000D02*
X150750000Y-59500000D01*
X145000000Y-75000000D02*
X149500000Y-75000000D01*
X143750000Y-71000000D02*
X143750000Y-72500000D01*
X149500000Y-68500000D02*
X145000000Y-68500000D01*
X150750000Y-72500000D02*
X150750000Y-71000000D01*
X145000000Y-86500000D02*
X149500000Y-86500000D01*
X143750000Y-82500000D02*
X143750000Y-84000000D01*
X149500000Y-80000000D02*
X145000000Y-80000000D01*
X150750000Y-84000000D02*
X150750000Y-82500000D01*
X145000000Y-98000000D02*
X149500000Y-98000000D01*
X143750000Y-94000000D02*
X143750000Y-95500000D01*
X149500000Y-91500000D02*
X145000000Y-91500000D01*
X150750000Y-95500000D02*
X150750000Y-94000000D01*
X158500000Y-63500000D02*
X163000000Y-63500000D01*
X157250000Y-59500000D02*
X157250000Y-61000000D01*
X163000000Y-57000000D02*
X158500000Y-57000000D01*
X164250000Y-61000000D02*
X164250000Y-59500000D01*
X158500000Y-75000000D02*
X163000000Y-75000000D01*
X157250000Y-71000000D02*
X157250000Y-72500000D01*
X163000000Y-68500000D02*
X158500000Y-68500000D01*
X164250000Y-72500000D02*
X164250000Y-71000000D01*
X158500000Y-86500000D02*
X163000000Y-86500000D01*
X157250000Y-82500000D02*
X157250000Y-84000000D01*
X163000000Y-80000000D02*
X158500000Y-80000000D01*
X164250000Y-84000000D02*
X164250000Y-82500000D01*
D14*
X169025000Y-70450000D02*
X173475000Y-70450000D01*
X167500000Y-63550000D02*
X173475000Y-63550000D01*
X177730472Y-61715616D02*
X177780472Y-61715616D01*
X177730472Y-57565616D02*
X177875472Y-57565616D01*
X182880472Y-57565616D02*
X182735472Y-57565616D01*
X182880472Y-61715616D02*
X182735472Y-61715616D01*
X177730472Y-61715616D02*
X177730472Y-57565616D01*
X182880472Y-61715616D02*
X182880472Y-57565616D01*
X177780472Y-61715616D02*
X177780472Y-63115616D01*
D13*
X168140000Y-58600000D02*
X168140000Y-60400000D01*
X171360000Y-60400000D02*
X171360000Y-57950000D01*
X166503600Y-62271000D02*
X166003600Y-62271000D01*
X166003600Y-63331000D02*
X166503600Y-63331000D01*
X168003000Y-63331000D02*
X168503000Y-63331000D01*
X168503000Y-62271000D02*
X168003000Y-62271000D01*
D14*
X183071429Y-66380952D02*
X183071429Y-65619047D01*
X183452381Y-65999999D02*
X182690476Y-65999999D01*
M02*
