M48
INCH,TZ
T1C0.016
T2C0.022
T3C0.031
T4C0.033
T5C0.043
T6C0.047
T7C0.031
%
G90
G05
T1
X64006Y-29656
X64173Y-30217
X65650Y-28346
X65960Y-24380
X66785Y-26947
X66792Y-27439
X66929Y-25787
X67054Y-26745
X67066Y-26310
X67152Y-28176
X67210Y-21110
X67717Y-27362
X67902Y-25236
X68001Y-25763
X68012Y-26083
X69065Y-27560
X69291Y-27044
X69670Y-26770
X69750Y-23500
X69882Y-21752
T3
X68406Y-28740
X69193Y-28740
T5
X43110Y-22835
X43110Y-24606
X43110Y-27362
X43110Y-29134
X43110Y-31890
X43110Y-33661
X43110Y-36417
X43110Y-38189
X45669Y-22835
X45669Y-24606
X45669Y-27362
X45669Y-29134
X45669Y-31890
X45669Y-33661
X45669Y-36417
X45669Y-38189
X47638Y-22835
X47638Y-24606
X47638Y-27362
X47638Y-29134
X47638Y-31890
X47638Y-33661
X47638Y-36417
X47638Y-38189
X50197Y-22835
X50197Y-24606
X50197Y-27362
X50197Y-29134
X50197Y-31890
X50197Y-33661
X50197Y-36417
X50197Y-38189
X52165Y-22835
X52165Y-24606
X52165Y-27362
X52165Y-29134
X52165Y-31890
X52165Y-33661
X52165Y-36417
X52165Y-38189
X54724Y-22835
X54724Y-24606
X54724Y-27362
X54724Y-29134
X54724Y-31890
X54724Y-33661
X54724Y-36417
X54724Y-38189
X56693Y-22835
X56693Y-24606
X56693Y-27362
X56693Y-29134
X56693Y-31890
X56693Y-33661
X56693Y-36417
X56693Y-38189
X59252Y-22835
X59252Y-24606
X59252Y-27362
X59252Y-29134
X59252Y-31890
X59252Y-33661
X59252Y-36417
X59252Y-38189
X62008Y-22835
X62008Y-24606
X62008Y-27362
X62008Y-29134
X62008Y-31890
X62008Y-33661
X64567Y-22835
X64567Y-24606
X64567Y-27362
X64567Y-29134
X64567Y-31890
X64567Y-33661
T6
X68895Y-30315
X68895Y-31299
X68895Y-33268
X68895Y-34252
X70866Y-32283
T7
X66388Y-21555
X68356Y-21555
T2
X65846Y-20600G85X65846Y-20344
G05
X68898Y-20600G85X68898Y-20344
G05
T4
X65906Y-22077G85X65906Y-21860
G05
X68839Y-22077G85X68839Y-21860
G05
T0
M30
