G04 #@! TF.FileFunction,Paste,Top*
%FSLAX46Y46*%
G04 Gerber Fmt 4.6, Leading zero omitted, Abs format (unit mm)*
G04 Created by KiCad (PCBNEW 4.0.0-rc2-stable) date 20/03/2018 15:00:49*
%MOMM*%
G01*
G04 APERTURE LIST*
%ADD10C,0.100000*%
%ADD11R,0.500000X0.600000*%
%ADD12R,0.600000X0.500000*%
%ADD13R,1.600000X3.500000*%
%ADD14R,0.800000X0.800000*%
%ADD15R,0.450000X1.300000*%
%ADD16R,0.600000X0.400000*%
%ADD17R,0.400000X0.600000*%
%ADD18R,1.450000X0.450000*%
%ADD19R,0.600000X1.550000*%
%ADD20R,0.650000X1.060000*%
G04 APERTURE END LIST*
D10*
D11*
X172250000Y-60300000D03*
X172250000Y-59200000D03*
D12*
X180950000Y-55140616D03*
X182050000Y-55140616D03*
D11*
X177000000Y-57800000D03*
X177000000Y-56700000D03*
X176000000Y-66450000D03*
X176000000Y-67550000D03*
D13*
X180750000Y-67800000D03*
X180750000Y-73200000D03*
D14*
X111950000Y-65000000D03*
X113550000Y-65000000D03*
X112000000Y-76500000D03*
X113600000Y-76500000D03*
X112000000Y-88000000D03*
X113600000Y-88000000D03*
X112000000Y-99500000D03*
X113600000Y-99500000D03*
X123450000Y-65000000D03*
X125050000Y-65000000D03*
X123500000Y-76500000D03*
X125100000Y-76500000D03*
X123500000Y-88000000D03*
X125100000Y-88000000D03*
X123500000Y-99500000D03*
X125100000Y-99500000D03*
X134950000Y-65000000D03*
X136550000Y-65000000D03*
X135000000Y-76500000D03*
X136600000Y-76500000D03*
X135000000Y-88000000D03*
X136600000Y-88000000D03*
X135000000Y-99500000D03*
X136600000Y-99500000D03*
X146450000Y-65000000D03*
X148050000Y-65000000D03*
X146500000Y-76500000D03*
X148100000Y-76500000D03*
X146500000Y-88000000D03*
X148100000Y-88000000D03*
X146500000Y-99500000D03*
X148100000Y-99500000D03*
D15*
X172425000Y-55850000D03*
X171775000Y-55850000D03*
X171125000Y-55850000D03*
X170475000Y-55850000D03*
X169825000Y-55850000D03*
D16*
X166500000Y-66050000D03*
X166500000Y-66950000D03*
X166500000Y-64050000D03*
X166500000Y-64950000D03*
X170250000Y-73450000D03*
X170250000Y-72550000D03*
X176000000Y-64952800D03*
X176000000Y-64052800D03*
D17*
X172705200Y-62801000D03*
X173605200Y-62801000D03*
X179950000Y-55140616D03*
X179050000Y-55140616D03*
D18*
X168300000Y-64075000D03*
X168300000Y-64725000D03*
X168300000Y-65375000D03*
X168300000Y-66025000D03*
X168300000Y-66675000D03*
X168300000Y-67325000D03*
X168300000Y-67975000D03*
X168300000Y-68625000D03*
X168300000Y-69275000D03*
X168300000Y-69925000D03*
X174200000Y-69925000D03*
X174200000Y-69275000D03*
X174200000Y-68625000D03*
X174200000Y-67975000D03*
X174200000Y-67325000D03*
X174200000Y-66675000D03*
X174200000Y-66025000D03*
X174200000Y-65375000D03*
X174200000Y-64725000D03*
X174200000Y-64075000D03*
D19*
X178400472Y-62340616D03*
X179670472Y-62340616D03*
X180940472Y-62340616D03*
X182210472Y-62340616D03*
X182210472Y-56940616D03*
X180940472Y-56940616D03*
X179670472Y-56940616D03*
X178400472Y-56940616D03*
D20*
X170700000Y-58400000D03*
X169750000Y-58400000D03*
X168800000Y-58400000D03*
X168800000Y-60600000D03*
X170700000Y-60600000D03*
D17*
X165803600Y-62801000D03*
X166703600Y-62801000D03*
X168703000Y-62801000D03*
X167803000Y-62801000D03*
M02*
